<?xml version="1.0" encoding="UTF-8" standalone="no"?>
<svg
   xmlns:dc="http://purl.org/dc/elements/1.1/"
   xmlns:cc="http://creativecommons.org/ns#"
   xmlns:rdf="http://www.w3.org/1999/02/22-rdf-syntax-ns#"
   xmlns:svg="http://www.w3.org/2000/svg"
   xmlns="http://www.w3.org/2000/svg"
   xmlns:sodipodi="http://sodipodi.sourceforge.net/DTD/sodipodi-0.dtd"
   xmlns:inkscape="http://www.inkscape.org/namespaces/inkscape"
   id="svg"
   version="1.1"
   width="400"
   height="566.6666666666666"
   viewBox="0, 0, 400,566.6666666666666"
   sodipodi:docname="image2vector(3).svg"
   inkscape:version="0.92.3 (2405546, 2018-03-11)">
  <metadata
     id="metadata10">
    <rdf:RDF>
      <cc:Work
         rdf:about="">
        <dc:format>image/svg+xml</dc:format>
        <dc:type
           rdf:resource="http://purl.org/dc/dcmitype/StillImage" />
      </cc:Work>
    </rdf:RDF>
  </metadata>
  <defs
     id="defs8" />
  <sodipodi:namedview
     pagecolor="#ffffff"
     bordercolor="#666666"
     borderopacity="1"
     objecttolerance="10"
     gridtolerance="10"
     guidetolerance="10"
     inkscape:pageopacity="0"
     inkscape:pageshadow="2"
     inkscape:window-width="1299"
     inkscape:window-height="713"
     id="namedview6"
     showgrid="false"
     inkscape:zoom="0.73372725"
     inkscape:cx="200"
     inkscape:cy="283.33334"
     inkscape:window-x="67"
     inkscape:window-y="27"
     inkscape:window-maximized="1"
     inkscape:current-layer="svg" />
  <path
     sodipodi:nodetypes="cccc"
     style="fill:#ffffff;fill-rule:evenodd;stroke:none"
     inkscape:connector-curvature="0"
     d="M 0,566.4 H 400 V 0 H 0"
     id="path0" />
  <path
     style="fill:#000000;fill-rule:evenodd;stroke:none;stroke-width:1.11994314"
     inkscape:connector-curvature="0"
     d="m 230.54034,10.622707 c 0.61709,0.682045 0.95195,0.775 1.41337,0.3931 0.98779,-0.820919 0.69324,-1.2879355 -0.80972,-1.2879355 -1.38425,0 -1.39657,0.01904 -0.60365,0.8948355 m -24.7429,10.23964 c -2.45156,1.238657 -2.80882,1.822147 -1.68664,2.75282 2.47508,2.053976 -0.8086,3.012647 -3.81676,1.114344 -1.94535,-1.228578 -2.52996,-0.506215 -1.24986,1.543281 0.61373,0.98331 -0.13775,2.270125 -1.32489,2.270125 -1.06395,0 -6.98845,-2.976809 -7.87656,-3.956759 -3.2624,-3.605097 -16.98842,-1.270016 -19.19135,3.264634 -0.80748,1.661996 -1.14346,1.909503 -3.25455,2.400038 -3.97356,0.923953 -7.97848,2.708023 -9.63823,4.291622 -0.8702,0.830998 -2.08534,1.768391 -2.70131,2.084215 -0.61597,0.314704 -1.8255,1.126662 -2.68786,1.801988 -0.86236,0.675326 -2.17269,1.354011 -2.91185,1.508563 -0.73917,0.153433 -1.84791,0.677566 -2.46388,1.164741 -1.8479,1.461526 -4.32746,3.011527 -5.32197,3.327351 -0.51293,0.162392 -1.55784,1.165861 -2.32164,2.228687 -0.7638,1.062826 -1.83111,2.134612 -2.37204,2.380999 -2.30932,1.052747 -3.98588,3.093283 -6.37136,7.756727 -2.51987,4.927749 -4.01611,6.616624 -7.50585,8.475729 -6.81934,3.633096 -10.92729,5.971537 -11.69893,6.659182 -0.5051,0.449097 -1.69783,1.283455 -2.64979,1.853506 -0.95419,0.572291 -1.9935,1.664236 -2.31492,2.433637 -0.3203,0.768281 -1.02475,1.796388 -1.56568,2.283564 -0.53981,0.488295 -1.55112,2.014777 -2.24773,3.392307 -0.69548,1.37753 -1.75943,2.828977 -2.36308,3.224317 -1.327132,0.869076 -3.440462,4.951268 -3.440462,6.645741 0,1.41113 -1.07179,2.38212 -4.60633,4.17067 -1.33273,0.67421 -2.74834,1.79303 -3.16832,2.50419 -0.41773,0.70669 -1.726948,2.354124 -2.909608,3.661104 -2.96561,3.27807 -5.688191,7.07132 -6.544948,9.11969 -0.39422,0.94524 -1.215138,2.37204 -1.823267,3.16944 -0.609249,0.7974 -1.106504,1.87479 -1.106504,2.39332 0,1.31929 -1.554481,4.22443 -3.315032,6.19217 -0.815319,0.91275 -1.695594,2.06517 -1.954301,2.55907 -0.492775,0.94411 -0.629408,7.38154 -0.155672,7.39834 2.487394,0.0907 2.523232,4.26138 0.06608,7.65257 -1.561201,2.15701 -1.657516,3.29152 -0.624928,7.40395 0.611489,2.43363 0.655166,3.51326 0.257586,6.36351 -0.468136,3.35535 -0.306864,5.18086 0.757082,8.58101 0.268786,0.86123 0.489415,2.13461 0.489415,2.83121 0,1.3081 2.385479,5.23574 3.179519,5.23574 0.246387,0 0.692125,0.55437 0.991149,1.23194 0.925073,2.09765 3.035046,5.17077 5.022945,7.31658 1.046027,1.12891 2.041657,2.69123 2.213008,3.47183 0.171351,0.77948 0.684285,1.67879 1.140102,1.99798 0.456937,0.3203 1.567921,1.67879 2.470595,3.02048 0.903794,1.3417 2.378759,3.24784 3.280309,4.23563 0.90044,0.98779 1.97222,2.50195 2.381,3.36431 2.10325,4.43833 3.51214,8.01991 3.51214,8.93042 0,2.06854 1.47721,6.63343 3.39903,10.50507 1.087462,2.18949 1.976702,4.23451 1.976702,4.54361 0,0.31022 0.27327,0.66861 0.60589,0.79628 0.33374,0.12767 1.26329,1.6116 2.06517,3.29599 3.64766,7.65705 6.8283,8.18679 4.94455,0.82316 -0.49277,-1.9263 -0.87243,-4.02507 -0.84443,-4.66344 0.0347,-0.75932 0.12319,-0.88924 0.25758,-0.3763 0.112,0.43117 0.47262,0.78396 0.80076,0.78396 0.63389,0 2.3474,2.65874 4.33194,6.71966 0.66301,1.35513 1.5332,2.86705 1.93414,3.35983 0.7918,0.97435 0.79292,1.14234 -0.0381,-4.96471 -0.18704,-1.37977 -0.0202,-2.20405 0.6854,-3.35983 0.51293,-0.8422 0.93403,-2.09878 0.93515,-2.79202 0,-0.69437 0.24303,-1.70231 0.5387,-2.23989 0.29566,-0.53869 0.6798,-1.98678 0.85451,-3.21871 0.37182,-2.63075 1.50857,-7.75337 1.78071,-8.02552 1.79303,-1.79302 3.80221,-0.2811 7.09036,5.33765 1.60264,2.73826 2.35636,3.61854 3.19632,3.72941 0.60477,0.0806 1.84791,0.73917 2.7629,1.46377 0.91499,0.72572 2.32612,1.44697 3.13584,1.60376 0.80972,0.15791 2.57251,0.98443 3.91644,1.83782 l 2.44484,1.55113 -1.99238,1.69895 -1.99126,1.69783 1.78743,0.29231 c 0.98331,0.16127 2.60051,0.58349 3.5939,0.93739 0.99451,0.3539 2.15141,0.64285 2.57251,0.64285 0.42109,0 1.0169,0.40318 1.32489,0.89595 0.91835,1.47049 2.58371,1.17818 2.58371,-0.45245 0,-0.74253 0.44797,-2.30261 0.99675,-3.46847 0.54765,-1.16586 0.93739,-2.56467 0.86683,-3.10672 -0.18143,-1.38425 0.69437,-2.82786 1.71576,-2.82786 1.1009,0 1.74487,-2.84689 0.93627,-4.14043 -0.56333,-0.90267 -0.27887,-3.27135 0.44686,-3.72045 0.22734,-0.14111 0.41325,-1.11546 0.41325,-2.16709 0,-1.45928 0.26431,-2.16037 1.11995,-2.96337 1.30249,-1.22409 1.40889,-2.27796 0.38862,-3.8358 -0.71453,-1.09083 -0.69213,-1.15242 0.94411,-2.56691 1.65528,-1.43129 1.67879,-1.49737 1.79191,-5.08454 0.13999,-4.40698 0.26655,-4.63993 2.51315,-4.63993 1.52088,0 1.84231,-0.17471 2.23989,-1.21962 0.7918,-2.08309 -0.075,-3.27023 -2.14469,-2.93649 -1.53433,0.24639 -1.64184,0.20159 -1.09979,-0.45693 0.36958,-0.4491 0.64509,-2.14582 0.71453,-4.40698 0.12095,-3.95228 1.0841,-5.31525 2.64978,-3.74957 0.34718,0.34718 0.75596,0.50621 0.90828,0.3539 0.99339,-0.99339 -0.93404,-4.15947 -2.5322,-4.15947 -0.7414,0 -0.83323,-0.11983 -0.41549,-0.53757 0.29566,-0.29566 0.53757,-1.28681 0.53757,-2.20293 0,-2.23876 0.37854,-3.0832 1.38089,-3.0832 1.72023,0 2.84353,-4.52793 1.80311,-7.26619 -0.27551,-0.72349 -0.21391,-1.3081 0.19487,-1.86807 0.80636,-1.10202 -0.69549,-4.25802 -2.52548,-5.30853 -1.51752,-0.87019 -1.67095,-2.10661 -0.40541,-3.25231 1.70455,-1.54328 0.94411,-2.91185 -1.61944,-2.91185 -3.96236,0 -5.21894,-2.25669 -2.46948,-4.43498 1.50969,-1.19498 1.72807,-1.6004 1.68888,-3.12912 -0.0358,-1.33833 0.20495,-1.9599 1.00795,-2.61059 1.53096,-1.23978 2.7349,-4.80007 2.73602,-8.09047 0,-2.52659 0.10751,-2.85809 1.07066,-3.29711 1.05611,-0.48046 2.06518,-2.08645 2.06518,-3.28703 0,-0.72349 4.10795,-4.30506 6.04769,-5.2727 1.48841,-0.7414 3.02049,-1.13114 11.8714,-3.016 3.32623,-0.70781 8.36597,-2.1111 11.19943,-3.1168 2.83346,-1.00683 5.9581,-1.92183 6.94365,-2.03382 0.98555,-0.11312 3.40462,-0.41774 5.37572,-0.67869 4.55033,-0.60141 19.17791,0.19823 23.93767,1.30922 2.39444,0.55885 3.89068,0.67308 5.31861,0.40542 1.09306,-0.20383 2.76626,-0.24639 3.71933,-0.0941 0.95307,0.15231 2.28916,0.056 2.96897,-0.21503 0.68092,-0.27102 1.78519,-0.69212 2.45491,-0.93515 1.68664,-0.61485 0.70781,-3.47966 -1.11098,-3.25344 -1.9375,0.23967 -7.49802,-4.977024 -7.49802,-7.034364 0,-0.7638 0.10752,-1.38873 0.23855,-1.38873 0.32926,0 3.17728,2.8749 3.39343,3.42479 0.0974,0.24527 0.98219,0.83548 1.96774,1.310334 0.98555,0.47598 1.9823,1.2969 2.21412,1.82551 0.31919,0.72796 0.79292,0.95083 1.94759,0.91835 0.90155,-0.0258 1.67879,0.22287 1.89942,0.60701 1.13114,1.96998 1.5724,2.27349 2.68786,1.85463 0.75372,-0.28335 2.21413,-0.18815 4.57833,0.29566 3.03281,0.62157 3.6555,0.63165 4.92775,0.0739 0.83884,-0.36734 2.6901,-0.61037 4.36778,-0.57341 1.60152,0.0358 6.23808,0.0952 10.30348,0.13327 6.64686,0.0627 7.61785,0.17247 9.63151,1.08859 1.23193,0.56109 2.94545,1.16586 3.8078,1.34617 0.86236,0.17919 2.84578,1.03259 4.40922,1.89494 2.24549,1.2409 3.13696,1.50856 4.25578,1.27898 0.77724,-0.16016 2.32165,-0.4323 3.43039,-0.60477 3.66669,-0.57229 2.91745,-4.48314 -1.23866,-6.46879 -3.39231,-1.62056 -5.07558,-6.019704 -3.24895,-8.491414 0.7918,-1.06955 0.94523,-1.71464 0.72908,-3.06417 -0.51965,-3.253433 4.61417,-7.291948 6.73646,-5.299569 1.11994,1.052747 1.61384,2.504193 0.98443,2.892813 -1.10315,0.682046 -1.31706,2.538916 -0.39198,3.400146 1.06282,0.99115 1.27449,4.72168 0.35054,6.20001 -0.71676,1.147944 0.38638,3.348634 1.6788,3.348634 1.57576,0 2.44147,-2.353 1.23193,-3.346394 -1.35289,-1.11323 -1.26889,-2.00582 0.29343,-3.11904 1.65527,-1.1793 2.28244,-1.17147 2.28244,0.0258 0,1.46041 3.69357,8.006484 4.51673,8.007604 0.39086,0 0.8366,0.12767 0.99227,0.28334 0.50062,0.4995 -0.58461,1.95654 -1.45816,1.95654 -0.57453,0 -1.01691,0.52078 -1.38201,1.62616 -0.29567,0.89484 -1.1737,2.35636 -1.95094,3.24784 -2.74499,3.14816 -2.69459,3.00816 -1.66872,4.66792 1.07291,1.73591 2.59379,2.55347 4.75304,2.55347 0.8366,0 1.65079,0.20943 1.80871,0.4659 0.15791,0.25646 1.07738,0.96427 2.04277,1.57352 1.94198,1.22633 2.21301,1.95654 0.85788,2.31044 -1.07291,0.2811 -1.26218,2.33284 -0.22399,2.437 0.36958,0.037 0.92395,0.0874 1.23194,0.11199 0.36958,0.0291 0.51069,-0.45134 0.41438,-1.41113 -0.0997,-0.98891 0.0459,-1.45593 0.45245,-1.45593 0.80076,0 3.05297,-2.12117 3.05297,-2.87489 0,-0.90491 1.23418,-1.74263 2.08533,-1.41673 0.57341,0.22063 0.62829,0.41326 0.22959,0.81196 -0.64173,0.64173 -0.67756,2.353 -0.0728,3.48302 0.62716,1.17259 -0.27887,2.99473 -1.74712,3.51215 -1.05162,0.37182 -1.0841,0.44573 -0.32702,0.7582 0.46254,0.18927 1.48505,0.11199 2.27237,-0.17247 1.75943,-0.63613 3.23887,-0.66525 3.60733,-0.0694 0.38078,0.61597 3.06305,0.56557 3.69917,-0.0706 0.36847,-0.36846 0.68653,-0.38078 1.09755,-0.0437 1.51752,1.24425 2.77634,0.84555 4.16059,-1.31706 1.61944,-2.53107 3.9646,-2.76066 5.28837,-0.51965 0.59805,1.01355 2.68786,0.79852 2.14245,-0.21951 -0.24303,-0.45582 -0.63053,-2.34068 -0.86012,-4.18859 -0.52413,-4.2233 -1.0281,-5.15622 -3.35647,-6.21008 -1.62839,-0.7358 -1.9319,-0.76044 -2.36532,-0.18591 -0.64172,0.85115 -1.96662,0.85451 -1.96662,0.006 0,-0.36062 0.31471,-0.915 0.69997,-1.23194 3.43822,-2.83682 3.96796,-4.19419 2.41348,-6.17537 -0.67645,-0.86347 -1.3529,-1.97334 -1.50185,-2.46611 -0.25086,-0.82764 -2.66658,-2.73826 -4.33978,-3.43039 -0.50509,-0.20943 -0.65292,-0.698844 -0.50845,-1.684394 0.29118,-1.9879 -0.52861,-2.74162 -2.88385,-2.65315 -2.49636,0.0941 -2.89394,-0.30686 -2.41348,-2.43587 0.46029,-2.04166 -0.39086,-3.20864 -2.10326,-2.8805 -0.70892,0.13552 -1.49624,-0.14447 -2.26116,-0.801876 l -1.17258,-1.009069 1.99574,-1.025868 c 1.09754,-0.563331 2.60051,-1.150182 3.33967,-1.303614 1.01467,-0.209429 1.37641,-0.557731 1.47832,-1.418968 0.13664,-1.156901 2.37204,-3.979158 3.15264,-3.979158 0.74588,0 0.9318,1.235298 0.3987,2.648666 -0.7134,1.889344 -0.0101,2.470594 3.04849,2.517632 2.85697,0.04368 3.27135,0.350542 3.8302,2.841296 0.22847,1.014669 1.11995,2.768499 1.98118,3.896279 1.07627,1.41113 1.56568,2.52547 1.56568,3.56926 0,2.95553 1.60712,6.231374 3.36991,6.868614 2.49972,0.9038 2.93873,1.97894 2.79874,6.86077 l -0.12095,4.24459 2.00917,2.10773 2.00918,2.10886 0.887,-1.21738 c 0.48717,-0.66973 1.34729,-1.71464 1.91062,-2.32165 1.47721,-1.59479 1.30809,-2.95217 -0.54429,-4.36441 -1.55672,-1.18826 -1.5668,-1.21738 -1.45929,-4.39018 0.11648,-3.41807 -0.78732,-5.42277 -3.35311,-7.439784 -1.67431,-1.31818 -3.38671,-4.94343 -3.92428,-8.30886 -0.27326,-1.711274 -0.76492,-3.416948 -1.09306,-3.789889 -0.86348,-0.98555 -2.46276,-4.383457 -3.20976,-6.818214 -0.35502,-1.159141 -1.11322,-2.671064 -1.68327,-3.359829 -0.57118,-0.688765 -1.58584,-2.198448 -2.25557,-3.35311 -2.22869,-3.844765 -5.17078,-2.882733 -5.19094,1.696714 -0.0168,3.93212 -4.41257,6.609904 -5.99393,3.651015 -4.11019,-7.69065 -4.33978,-7.926958 -7.70185,-7.941517 -3.19072,-0.01456 -3.86269,-0.656287 -4.26698,-4.077713 -0.19487,-1.655276 -0.1568,-3.183998 0.0907,-3.646535 0.56333,-1.052747 -0.25871,-2.589309 -1.38425,-2.589309 -1.70903,0 -7.99975,-1.721352 -9.22497,-2.524351 -1.35737,-0.889235 -5.67139,-1.103144 -7.01196,-0.348303 -1.18154,0.666366 0.12767,3.021607 2.71138,4.877353 2.50307,1.798628 2.90737,2.480674 2.3474,3.953399 -1.01131,2.660985 -5.34213,3.004807 -7.73321,0.613729 -0.82876,-0.828758 -3.9758,-2.540031 -4.67128,-2.540031 -0.28111,0 -1.68328,-0.705564 -3.11568,-1.567921 -1.52089,-0.916113 -3.1952,-1.56792 -4.0262,-1.56792 -1.82663,0 -3.60174,-1.404409 -3.9534,-3.126881 -0.15231,-0.744762 -0.39422,-1.918463 -0.53869,-2.610588 -0.5051,-2.422437 1.63064,-2.813297 3.75629,-0.688765 0.75484,0.755962 2.41348,-0.0011 2.05397,-0.937392 -0.33934,-0.885875 1.20618,-1.594799 3.49423,-1.601519 3.5715,-0.01232 4.90199,-0.885875 3.33183,-2.188369 -1.1961,-0.992269 -8.25286,-1.610478 -9.1477,-0.799639 -0.99115,0.895954 -4.57049,1.532082 -4.57049,0.810839 0,-0.277746 0.17695,-0.505095 0.3931,-0.505095 0.21727,0 0.64509,-0.604769 0.95084,-1.343931 0.62268,-1.504084 1.5444,-1.691115 3.0664,-0.626049 1.36185,0.955312 4.75752,0.484936 5.81362,-0.805239 0.84892,-1.037067 1.20394,-1.36745 2.70915,-2.514272 l 1.0617,-0.808599 -1.0617,-0.686525 c -2.05286,-1.327133 -10.68986,-3.275834 -14.72502,-3.322872 -5.21333,-0.06048 -4.92663,0.0616 -4.93446,-2.099893 -0.0101,-2.772979 -0.50958,-3.375509 -1.9935,-2.403398 -0.87356,0.572291 -1.10539,1.009069 -0.89148,1.682155 0.8478,2.671064 -5.17526,4.619765 -8.25174,2.669944 -1.38313,-0.876915 0.77948,-3.171679 3.06417,-3.251195 l 2.03157,-0.07056 -2.23428,-0.265427 c -1.87591,-0.222868 -2.37764,-0.491655 -3.13585,-1.677675 -1.29017,-2.020377 -4.52345,-2.495233 -9.79278,-1.436887 -2.13237,0.428939 -2.67218,0.40318 -3.32287,-0.155672 -1.37753,-1.18266 -2.32276,-1.286814 -3.12912,-0.346062 -1.30921,1.528722 -2.33956,1.161381 -2.03382,-0.725723 0.30127,-1.853506 -0.23519,-2.401158 -2.3586,-2.412358 -0.97547,-0.0045 -1.80983,-0.464776 -2.91185,-1.603758 -2.40004,-2.484034 -3.85708,-3.15264 -9.15889,-4.200907 -2.71027,-0.535333 -5.3119,-1.086345 -5.78003,-1.224098 -0.96315,-0.282226 0.25759,2.137971 2.13797,4.238985 1.70231,1.900543 0.54205,10.197082 -1.58584,11.334944 -1.17594,0.629408 -1.27337,0.486056 -1.67207,-2.452675 -0.24975,-1.836707 -0.64621,-2.779699 -1.50297,-3.573739 -1.49624,-1.386489 -3.88956,-6.126089 -4.2961,-8.505968 -0.28335,-1.659756 -0.47374,-1.880384 -1.87143,-2.17045 -0.85675,-0.178071 -2.86705,-0.630528 -4.46857,-1.004589 -3.67005,-0.858996 -3.77421,-0.848917 -6.60094,0.579011 m 34.37553,10.783932 c 0,1.00011 -1.1289,2.272365 -2.0159,2.272365 -0.33486,0 -0.90043,0.292305 -1.25769,0.649567 -0.88588,0.885875 -2.62963,1.245377 -3.44607,0.711164 -0.97547,-0.638368 -0.0336,-1.943101 1.65192,-2.288044 0.73804,-0.151192 1.77735,-0.710044 2.3082,-1.240897 1.22858,-1.228578 2.75954,-1.285695 2.75954,-0.104155 m -38.07807,0.469257 c 0,0.240787 0.90492,0.848916 2.01142,1.352891 2.95553,1.346172 4.57497,5.297331 3.13024,7.634652 -0.97547,1.578 -3.82572,-2.046136 -3.98139,-5.063263 -0.0504,-0.97995 -0.39422,-2.010298 -0.76493,-2.288043 -0.83771,-0.627169 -1.4156,-2.073015 -0.82875,-2.073015 0.23854,0 0.43341,0.19711 0.43341,0.436778 m 20.80183,8.06359 c 3.25007,1.235297 -0.19039,6.446393 -4.09115,6.196646 -1.52201,-0.09743 -2.18165,-0.342703 -2.27685,-0.844438 -0.20943,-1.100904 2.66995,-5.047583 3.93324,-5.393646 0.61597,-0.167991 1.1569,-0.325903 1.20282,-0.350542 0.0459,-0.02464 0.60029,0.152312 1.23194,0.39198 m -39.68071,3.695813 c 3.10113,1.661995 3.98812,5.911059 1.6116,7.724247 -1.82439,1.39097 -2.60835,1.096425 -3.05744,-1.151301 -0.1512,-0.753722 -0.67981,-1.885984 -1.1737,-2.514272 -0.69213,-0.880276 -0.90044,-1.818788 -0.90044,-4.060914 v -2.917452 l 1.03819,1.074025 c 0.57229,0.59021 1.68775,1.421208 2.48179,1.845667 m 90.70532,-1.59256 c 0.38526,0.384141 -1.01019,1.939742 -1.73927,1.939742 -0.52862,0 -1.09867,-0.948592 -1.09867,-1.828867 0,-0.470376 2.38548,-0.564452 2.83794,-0.110875 M 207.904,46.291032 c 2.7965,3.183998 2.99585,4.110191 1.76615,8.184544 -1.90054,6.300801 -3.08096,6.889891 -5.82146,2.907373 -1.83895,-2.673304 -1.77847,-10.920566 0.0795,-10.920566 0.19039,0 0.47374,-0.403179 0.63053,-0.895954 0.4323,-1.362971 1.76615,-1.075146 3.34527,0.724603 m 9.46352,5.041984 c 0.97547,0.79068 1.00123,0.942992 0.44686,2.622907 -0.44238,1.339452 -0.46478,2.017017 -0.0907,2.715862 0.75036,1.402169 0.62157,1.798629 -0.82316,2.546751 -2.82897,1.462645 -4.02395,-0.273267 -3.1448,-4.571608 0.78732,-3.855965 1.79751,-4.782158 3.61182,-3.313912 m -19.58669,2.342921 c 0.47598,2.378759 -0.65964,3.095523 -1.42568,0.899314 -0.31583,-0.908274 -0.30239,-1.443606 0.0459,-1.791909 0.78732,-0.78732 1.08187,-0.595809 1.37977,0.892595 m 78.3725,-0.650687 c 0.39758,0.39758 -1.07738,1.469365 -2.04613,1.486165 -0.77164,0.01456 -1.06955,-0.894835 -0.48494,-1.478325 0.38302,-0.384141 2.15029,-0.388621 2.53107,-0.0078 m 7.33787,30.015596 c 0.12992,0.338223 -0.0134,0.914994 -0.31694,1.281215 -0.75372,0.907154 0.24415,0.894835 2.46163,-0.03136 2.01142,-0.841078 2.15813,-0.729083 2.20741,1.682154 0.0314,1.507444 -0.15567,1.98118 -0.93963,2.37988 -0.53869,0.273266 -1.34505,0.945232 -1.79191,1.491764 -1.1401,1.395447 -2.82898,0.277746 -2.82898,-1.870305 0,-0.888115 -0.34382,-1.737032 -0.89595,-2.209648 -0.97323,-0.834358 -1.1849,-2.547871 -0.4099,-3.322871 0.60477,-0.60477 2.19733,-0.226229 2.51427,0.599169 m 4.61529,8.416372 c 0,1.35849 -0.3371,1.57688 -1.94982,1.26889 l -1.27338,-0.24303 1.27562,-1.04378 c 1.62839,-1.331611 1.94758,-1.328251 1.94758,0.0179 m -31.35841,3.3867 c 0,1.2689 -0.56893,1.78631 -1.07179,0.97324 -0.32366,-0.52302 0.20047,-2.31717 0.67645,-2.31717 0.21727,0 0.39534,0.60477 0.39534,1.34393 m -26.11707,0.57454 c 0.19711,0.31694 1.25881,1.22633 2.35972,2.02373 1.58472,1.1457 4.48425,5.139424 3.23775,4.457384 -0.17135,-0.0941 -0.91611,-0.42334 -1.65527,-0.73357 -1.23306,-0.51629 -5.09911,-4.597364 -5.50228,-5.806904 -0.23519,-0.70557 1.11546,-0.65405 1.56008,0.0594 m 105.9343,12.710234 c 0.45022,0.40766 0.81868,0.98219 0.81868,1.27674 0,0.29454 0.60141,1.42232 1.33609,2.50643 2.0271,2.99249 1.66759,7.12284 -0.62045,7.12284 -0.89931,0 -1.31481,-0.46702 -2.29588,-2.57587 -0.65965,-1.41673 -1.58136,-3.30943 -2.0495,-4.20427 -1.71575,-3.28815 0.36286,-6.34112 2.81106,-4.12587 m -14.07657,5.64003 c 1.20282,0.96204 0.66189,2.19621 -0.89595,2.04614 -1.28906,-0.12431 -1.47273,-0.31134 -1.59928,-1.63624 -0.14895,-1.55224 0.86012,-1.71799 2.49523,-0.4099 m 39.31001,6.60991 c -0.15232,0.24639 -0.13888,0.67084 0.0291,0.94411 0.30126,0.48718 1.0673,-0.25983 1.0841,-1.05611 0.0101,-0.49053 -0.79068,-0.41101 -1.11322,0.112 m -41.40206,9.7435 c 1.50632,1.99014 2.54563,2.94657 3.99596,3.67902 1.71463,0.86571 5.70835,1.46152 6.05441,0.90267 0.2811,-0.45582 -2.6957,-2.20741 -4.29274,-2.52659 -0.68093,-0.13663 -1.79751,-0.831 -2.48068,-1.54328 -1.44808,-1.51193 -4.3801,-1.96998 -3.27695,-0.51182 m 28.29872,3.24 c -1.29801,1.06059 -1.27113,1.35177 0.12656,1.35177 0.62268,0 1.25433,-0.31582 1.40328,-0.7022 0.44462,-1.15914 -0.44461,-1.53657 -1.52984,-0.64957 m -13.99929,0.19263 c -3.18848,0.66189 -3.58382,0.94187 -3.58382,2.53891 0,0.7302 -0.50845,2.09541 -1.13002,3.03393 -1.66647,2.51987 -2.15813,4.51897 -1.19722,4.87287 1.84791,0.68092 1.58584,2.51987 -0.29566,2.07189 -0.65181,-0.15567 -1.42233,-0.46925 -1.71352,-0.69772 -0.70108,-0.54989 -1.48728,0.92619 -1.48728,2.79314 0,1.00907 -0.40206,1.79303 -1.39433,2.72034 -1.32377,1.23642 -1.37529,1.41001 -1.01579,3.42815 0.50622,2.84465 0.38862,5.34212 -0.49613,10.53642 -0.68877,4.04412 -0.68877,4.57945 10e-4,7.67945 0.50957,2.2914 0.66188,4.3577 0.48605,6.61215 -0.78956,10.15228 -0.803,17.73653 -0.0369,21.25204 1.10762,5.08566 1.59815,8.08935 1.8199,11.14567 0.25983,3.59502 1.19162,8.73556 1.58248,8.73556 0.17247,0 0.64845,1.05834 1.05835,2.35188 1.6116,5.09574 2.49411,5.01286 3.58382,-0.33599 0.89707,-4.40585 1.51752,-5.21333 2.87825,-3.7518 0.57677,0.6182 0.84332,1.30809 0.66413,1.72023 -0.16351,0.37854 -0.46478,1.95766 -0.66749,3.51102 -0.20383,1.55224 -1.06843,4.3745 -1.9207,6.27168 -1.10987,2.46948 -1.634,4.40138 -1.84567,6.80814 -0.53645,6.09473 -1.57128,10.37291 -3.14144,12.99134 -0.81196,1.35513 -2.0159,4.17738 -2.67442,6.27168 -0.65853,2.09429 -1.88823,5.26597 -2.73378,7.0478 -1.02923,2.17045 -1.96438,5.34885 -2.83458,9.63151 -2.19957,10.82649 -2.63187,12.60496 -3.83917,15.82256 -0.64172,1.71127 -1.56344,4.26586 -2.04725,5.67475 -1.27786,3.72605 -5.52132,12.19618 -7.12508,14.22104 -0.75932,0.95867 -1.61384,2.41235 -1.8983,3.23103 -0.55102,1.58248 -3.00369,5.23126 -4.76312,7.08812 -2.92305,3.08209 -4.29162,6.71966 -2.52883,6.71966 0.3147,0 1.41673,1.76391 2.44819,3.9198 3.25568,6.80142 3.78765,7.75113 5.03751,8.98643 1.59368,1.57576 1.74823,5.45412 0.16575,4.15611 -0.26879,-0.22063 -0.99339,-0.4715 -1.60936,-0.55662 -0.72124,-0.0997 -1.37081,-0.65516 -1.82327,-1.56232 -0.3875,-0.775 -1.5444,-2.36196 -2.57027,-3.52894 -3.03504,-3.44718 -4.25018,-6.46095 -3.61853,-8.97074 0.33486,-1.32713 0.36398,-2.20741 0.0829,-2.48852 -0.58909,-0.58909 -4.47417,1.09867 -6.09921,2.64979 -1.31369,1.2521 -1.40441,1.26778 -9.33136,1.55784 -1.68328,0.0616 -2.82114,0.35726 -3.40127,0.88252 -1.47497,1.33497 -9.29665,1.32489 -11.17255,-0.0134 -0.78284,-0.55773 -2.32949,-1.1849 -3.43711,-1.39097 -1.10762,-0.20719 -2.87489,-1.01019 -3.92876,-1.78519 -1.42345,-1.04603 -2.39332,-1.40777 -3.77981,-1.40777 -1.28009,0 -2.41124,-0.37182 -3.60733,-1.18714 -2.02598,-1.37977 -2.8133,-1.43353 -7.31883,-0.50285 -3.70702,0.76604 -7.97288,-0.19039 -13.23885,-2.96673 -3.64542,-1.92295 -7.51482,-5.08455 -7.0814,-5.78675 0.72348,-1.17034 0.45134,-5.44516 -0.40766,-6.41055 -1.12554,-1.26218 0.13215,-1.88711 1.71239,-0.85116 1.31482,0.86123 3.43599,0.87355 5.06886,0.0291 1.14235,-0.59133 1.42793,-0.57005 2.98465,0.22399 0.94636,0.48157 2.33284,0.88587 3.08209,0.89707 0.74812,0.0101 2.16709,0.32814 3.15264,0.70668 2.42803,0.9318 22.04832,1.43689 25.53246,0.65629 4.20539,-0.94075 4.7452,-3.13136 1.89942,-7.70857 -1.38649,-2.23092 -1.41672,-2.85137 -0.26878,-5.67811 0.98779,-2.43364 -3.15376,-3.65885 -13.05182,-3.86156 -5.10806,-0.10416 -6.66366,-0.31471 -10.01229,-1.35401 -2.17941,-0.67533 -4.36106,-1.12555 -4.84824,-0.99787 -0.85003,0.22174 -3.45278,-0.48382 -6.54606,-1.77511 -4.55481,-1.90279 -7.53722,0.56669 -4.54249,3.76189 1.6228,1.73255 1.56344,2.5837 -0.25199,3.60509 -1.87254,1.05499 -2.50195,1.93302 -2.23205,3.11456 0.41102,1.79975 -1.63847,3.34863 -4.18634,3.16608 -1.66872,-0.11871 -2.39108,0.0627 -3.40127,0.85676 -2.62851,2.06629 -6.42847,1.07179 -6.17201,-1.61608 0.16239,-1.70567 -0.92059,-2.7517 -2.85025,-2.7517 -0.91724,0 -0.85228,-2.52995 0.0784,-3.05184 1.27114,-0.71117 0.0392,-0.87916 -2.84801,-0.38974 -3.01601,0.51181 -4.00828,0.17471 -2.58371,-0.87692 1.17482,-0.86796 -1.39433,-2.27124 -6.93469,-3.78765 -1.14794,-0.3147 -1.02139,1.58024 0.19375,2.89058 0.62717,0.67644 1.1401,1.4212 1.1401,1.65527 0,0.58013 -1.66871,0.53869 -2.03269,-0.0515 -0.1624,-0.26094 -0.77836,-0.65964 -1.37081,-0.88475 -0.59133,-0.22511 -1.07627,-0.75484 -1.07627,-1.17818 0,-0.69213 -0.0549,-0.69885 -0.55997,-0.0627 -0.90492,1.1401 -2.96561,1.28234 -3.9086,0.27103 -0.7638,-0.8198 -0.90268,-0.831 -2.17717,-0.17135 -1.40329,0.72572 -2.76066,0.55549 -2.76402,-0.34606 -0.0112,-3.22768 -6.47215,-5.19878 -9.56992,-2.9197 l -1.28457,0.94524 -0.95531,-1.16139 c -0.52526,-0.63836 -1.45929,-1.86918 -2.07526,-2.73378 -0.61597,-0.86571 -1.89046,-2.09317 -2.83233,-2.72818 -1.63512,-1.1009 -1.68328,-1.20058 -1.03931,-2.18165 0.59693,-0.91163 0.59693,-1.17482 0.007,-2.31156 -0.88588,-1.70791 -0.7582,-1.66536 -2.31044,-0.77388 -1.29466,0.74252 -1.45593,0.74364 -2.97233,0.0213 -1.68104,-0.80188 -2.20517,-2.36868 -0.95195,-2.84914 0.35726,-0.13775 1.05722,-0.88699 1.55336,-1.66647 0.49613,-0.77836 1.35289,-1.97222 1.9039,-2.65315 l 1.00235,-1.23754 -0.96875,-0.67868 c -0.57453,-0.40206 -0.97883,-1.17482 -0.99227,-1.8983 -0.0134,-0.67085 -0.0426,-1.77847 -0.0661,-2.46164 -0.0504,-1.48952 0.74588,-2.56579 1.89831,-2.56579 1.26441,0 1.0113,-0.71676 -0.47038,-1.33049 -2.17829,-0.90268 -3.01377,-2.0831 -2.14917,-3.03729 0.50509,-0.55773 0.58573,-1.00571 0.2811,-1.55 -0.33374,-0.59693 -0.16687,-0.93739 0.76157,-1.54552 1.28233,-0.83996 1.58696,-0.65405 3.14928,1.92294 0.66524,1.09643 0.95531,0.75932 1.32153,-1.53208 l 0.30126,-1.8871 h -1.57352 c -1.58024,0 -3.02048,-1.76055 -3.02048,-3.69358 0,-0.82763 -1.22522,-1.9375 -2.80098,-2.53555 -0.79292,-0.30126 -1.23082,-0.79628 -1.23082,-1.39097 0,-1.16026 -1.26329,-3.13136 -2.00694,-3.13136 -1.47608,0 -2.95105,-1.84902 -2.66994,-3.34751 0.17807,-0.94859 0.0246,-1.95766 -0.43118,-2.84017 -0.6798,-1.3137 -0.66189,-1.42345 0.44686,-2.74163 1.20954,-1.43688 1.18378,-1.4828 -1.16586,-1.99013 -1.50857,-0.32591 -2.66547,0.36622 -1.89719,1.1345 0.73805,0.73804 0.68205,2.18949 -0.12543,3.25791 -0.39758,0.52414 -0.63277,1.76615 -0.60141,3.15936 0.0997,4.30842 -2.82786,7.5361 -4.89079,5.39365 -0.54653,-0.56781 -0.99339,-1.43241 -0.99339,-1.92182 0,-0.48942 -0.31358,-1.15131 -0.69773,-1.46937 -0.38414,-0.31918 -0.99898,-1.30137 -1.36633,-2.18277 -2.08085,-4.99718 -7.4577,-6.61662 -5.58179,-1.68215 0.6742,1.77175 -0.49054,2.05621 -2.94097,0.71788 -2.3306,-1.27337 -2.71699,-2.89505 -0.80412,-3.37551 1.32377,-0.33262 2.19957,-2.10997 1.58248,-3.21199 -0.4827,-0.86124 0.0986,-2.62067 1.29017,-3.90749 2.7013,-2.91745 2.3306,-9.7715 -0.55885,-10.31355 -2.72258,-0.5107 -11.39766,6.50127 -12.25106,9.90253 -1.44696,5.76547 5.03079,14.97028 10.53643,14.97028 0.73356,0 2.00022,0.37967 2.81441,0.84332 0.81532,0.46366 2.78082,0.96875 4.3689,1.12218 5.0879,0.49166 4.54921,5.31749 -0.70444,6.30304 -0.831,0.15568 -1.49961,0.42558 -1.48617,0.59917 0.0302,0.3987 3.9758,3.00929 5.14726,3.40575 1.03707,0.35166 3.34303,3.83245 3.33295,5.03191 -0.0134,1.67879 -0.3819,1.86582 -5.32421,2.70802 -1.35961,0.23183 -1.70679,0.0594 -3.24783,-1.60936 -2.02486,-2.19285 -2.0047,-2.13349 -0.7302,-2.08869 1.5836,0.0571 1.47272,-1.2689 -0.16912,-2.0047 -1.77847,-0.79628 -3.17615,-3.2176 -3.1448,-5.45077 0.0269,-1.95206 -0.42893,-2.38995 -1.67879,-1.60935 -0.77948,0.48717 -1.06843,0.3987 -2.17045,-0.65629 -1.2521,-1.19946 -3.23888,-1.662 -3.23888,-0.75372 0,0.25534 0.89596,1.33497 1.99126,2.40004 3.51774,3.41918 3.1224,7.03772 -0.51293,4.70152 -0.93627,-0.60141 -2.86146,-1.66648 -4.27818,-2.36756 -2.01926,-0.99899 -2.57587,-1.49625 -2.57587,-2.30373 0,-0.56669 -0.12432,-1.35401 -0.27663,-1.74935 -0.4323,-1.12778 -1.51528,0.047 -1.51528,1.64408 v 1.33721 l -4.00044,-0.31694 c -2.7461,-0.21727 -4.52233,-0.14447 -5.66243,0.23183 -1.43801,0.47485 -1.71799,0.45021 -2.06966,-0.17807 -0.22399,-0.40094 -0.69996,-0.72797 -1.05722,-0.72797 -1.06059,0 -0.85788,3.23776 0.24638,3.92764 1.04379,0.65181 1.09867,1.25882 0.33935,3.6947 -0.80188,2.56914 -1.57464,2.10101 -2.31829,-1.40553 -0.16911,-0.79404 -0.72348,-1.36297 -1.71127,-1.75383 -0.80412,-0.31807 -1.76391,-0.82428 -2.133492,-1.12443 -1.59256,-1.29241 -2.56579,-1.19834 -3.08656,0.29791 -0.64733,1.8535 -0.69885,1.71575 0.84667,2.25444 1.73256,0.60365 1.69336,1.22186 -0.22398,3.51662 -0.86236,1.03259 -1.57017,2.31157 -1.5724,2.84242 -0.002,0.53085 -0.50622,2.0439 -1.11995,3.36207 -0.61373,1.31817 -1.11546,2.56915 -1.11546,2.7797 0,0.21055 -0.51854,1.14682 -1.1513,2.07973 -1.02363,1.50969 -1.11883,1.97782 -0.85676,4.23899 0.36062,3.10672 -0.26991,3.63197 -4.118027,3.42366 l -2.512033,-0.13551 -1.501844,2.91185 c -2.066295,4.00716 -2.037176,5.37573 0.116474,5.37573 1.5836,0 1.617198,0.0358 1.341692,1.41337 -0.356142,1.77623 -1.042667,2.61843 -2.135731,2.61843 -1.096425,0 -1.900544,1.97222 -1.277855,3.13584 0.246387,0.46029 0.447977,1.36745 0.447977,2.01589 0,0.64845 0.208309,1.56792 0.462536,2.0439 0.359502,0.67085 0.253108,1.14794 -0.473736,2.13125 -0.987789,1.33609 -1.401048,5.01735 -0.723483,6.43743 0.427818,0.89372 -2.010298,1.71912 -4.641044,1.57129 -1.398809,-0.0784 -1.655276,0.0907 -2.378759,1.57016 -1.273376,2.60498 0.09744,4.36553 2.317162,2.97904 0.470376,-0.29342 1.348411,-0.38078 2.051736,-0.20383 1.9655,0.49278 0.553252,2.26341 -1.874785,2.34965 -2.232047,0.0806 -5.939059,3.30271 -5.939059,5.16405 0,0.61933 -0.300144,2.11446 -0.667486,3.32399 -0.366221,1.20954 -0.668606,2.84018 -0.671966,3.62302 -0.0045,1.39993 -0.957551,2.83234 -1.883744,2.83234 -0.315824,0 -0.307984,0.19487 0.02464,0.59693 0.99003,1.19162 0.857876,7.18667 -0.161272,7.39162 -1.277855,0.25535 -1.553361,0.88364 -1.561201,3.55806 -0.0067,2.29812 -0.04592,2.37092 -1.441367,2.64979 -1.186019,0.23742 -1.285694,0.33934 -0.570051,0.59133 0.475976,0.16687 1.533203,0.15231 2.348521,-0.0314 1.847906,-0.41662 5.701631,0.87019 4.299462,1.43576 -0.459177,0.1848 -2.145811,0.22847 -3.74733,0.0952 -1.991259,-0.16463 -3.5491,-0.0246 -4.92775,0.44014 -1.108743,0.37518 -2.822256,0.81196 -3.807806,0.97099 -2.648666,0.42894 -8.201341,1.98342 -10.697694,2.99361 -1.201699,0.48717 -3.116802,0.88251 -4.255784,0.87915 -1.245377,-0.004 -2.659865,0.3371 -3.55134,0.85788 -0.814198,0.47597 -2.36084,1.08746 -3.434865,1.35737 -1.074026,0.27103 -2.407878,0.97659 -2.96449,1.56792 -0.555492,0.59245 -1.299134,1.07626 -1.653036,1.07626 -0.443497,0 -0.535333,0.24191 -0.296785,0.78397 0.883635,2.01029 0.770521,4.19754 -0.253107,4.91431 -0.860116,0.60252 -0.968751,0.99227 -0.771641,2.76514 0.126554,1.13562 0.09296,3.66109 -0.07504,5.61427 -0.167991,1.95206 -0.110874,4.50217 0.127674,5.66467 0.400939,1.95766 0.343822,2.22197 -0.766041,3.54014 -1.432408,1.70232 -1.519763,3.34079 -0.275506,5.16406 3.833565,5.621 5.205495,11.4279 2.449315,10.36955 -0.419979,-0.16015 -1.046027,0.008 -1.420088,0.3819 -0.834357,0.83436 -2.258925,0.19823 -2.822256,-1.25881 -0.20831,-0.53981 -0.904915,-1.47049 -1.548882,-2.06966 -2.596028,-2.41459 -4.036275,-5.81698 -3.203037,-7.56409 0.98891,-2.07638 0.749242,-2.20405 -4.457374,-2.38884 l -4.479772,-0.15791 -0.137753,2.46387 c -0.106395,1.89159 -0.39534,2.73378 -1.246497,3.62302 -1.219618,1.27561 -1.094185,2.35076 0.414379,3.57486 0.713404,0.57901 0.77612,0.86795 0.356142,1.65303 -0.285586,0.5331 -0.333743,1.05835 -0.108635,1.19722 0.79628,0.49278 0.964271,2.54675 0.322544,3.96796 -1.032588,2.28916 -1.164741,3.12576 -0.767161,4.85159 0.229588,0.99339 0.19711,1.93527 -0.084,2.437 -0.360622,0.64621 -0.254227,0.95083 0.509574,1.45817 1.104264,0.73356 1.272256,2.40787 0.320304,3.19743 -0.732443,0.60813 -0.669726,0.85228 1.314813,5.17414 0.7918,1.72471 1.678795,4.11467 1.9711,5.31189 0.292305,1.1961 1.206179,3.51438 2.029337,5.15174 1.352891,2.68786 4.73736,12.97454 4.73736,14.39687 0,0.31806 0.705564,2.36196 1.56792,4.54249 0.908274,2.297 1.5724,4.7676 1.578,5.87186 0.0056,1.04939 0.374061,2.71362 0.819798,3.69917 0.444618,0.98555 1.158021,3.20304 1.5836,4.92775 0.426698,1.72471 1.048267,4.043 1.38313,5.15174 0.333743,1.10874 0.722363,3.26912 0.861236,4.80232 0.138873,1.53208 0.659646,3.54462 1.158021,4.47305 0.497255,0.92843 0.903794,2.53667 0.903794,3.5771 0,1.41897 0.278866,2.16933 1.119943,3.01041 0.871316,0.87131 1.119943,1.57912 1.119943,3.19183 0,2.00134 0.06048,2.09654 1.79191,2.77634 1.728072,0.67869 1.969979,1.08075 1.824387,3.03281 -0.03696,0.49389 0.443497,1.90502 1.068426,3.13584 0.623808,1.23194 1.135622,2.47619 1.136742,2.76626 0.0034,0.95195 3.281433,3.28031 4.618645,3.28031 2.652026,0 5.444044,5.2615 3.447185,6.49567 -0.942992,0.58349 -0.3819,1.11995 1.171461,1.11995 1.303614,0 2.132368,0.44573 4.26362,2.2914 2.525472,2.18837 2.703543,2.26564 3.978038,1.73815 1.868065,-0.77388 3.218717,0.21167 4.92663,3.59502 1.412248,2.79762 2.785299,3.5043 3.989238,2.05285 0.743642,-0.89595 2.071894,-0.3987 3.607336,1.34954 1.321533,1.5052 1.359611,1.5164 5.264853,1.52312 4.839274,0.009 5.412685,0.28222 4.617526,2.20293 -0.612609,1.47832 -0.556612,1.59816 1.891584,4.14379 0.431178,0.44797 0.78396,1.18938 0.78396,1.64743 0,0.66973 0.453577,0.88812 2.297003,1.10539 1.262176,0.15007 2.786422,0.59357 3.386712,0.98667 0.59917,0.3931 1.93414,0.86123 2.96673,1.04154 1.77399,0.31023 1.86918,0.4043 1.74151,1.7236 -0.18591,1.92406 0.50062,2.16709 3.03729,1.07626 3.377752,-1.45256 7.044442,-0.33486 6.465432,1.9711 -0.34718,1.38201 1.5276,1.92742 2.52323,0.73356 0.37966,-0.45581 1.12778,-1.06282 1.66312,-1.34953 0.54205,-0.28894 1.21401,-1.32153 1.51416,-2.32388 0.37406,-1.2465 0.7358,-1.72807 1.17258,-1.5612 0.34718,0.13439 0.71116,0.24303 0.80748,0.24303 0.0974,0 0.49501,0.61709 0.88587,1.37081 0.86012,1.66423 2.79426,1.71127 3.59838,0.0885 0.73244,-1.4772 1.9263,-2.68338 2.91185,-2.94097 1.05611,-0.2755 1.58808,0.38526 0.61149,0.75932 -0.47597,0.18368 -0.65292,0.72125 -0.55773,1.69224 0.19711,1.99238 1.09866,2.07749 1.89158,0.18143 0.85004,-2.03494 2.7741,-2.20741 4.87848,-0.43566 1.58472,1.33273 3.00704,0.51854 2.08981,-1.19498 -0.3371,-0.62941 -0.23519,-0.86683 0.46702,-1.0897 0.49389,-0.15567 1.16922,-0.803 1.50184,-1.43689 l 0.60365,-1.15354 0.47374,1.35961 c 0.40654,1.16586 0.75036,1.39433 2.41795,1.60488 1.06955,0.13551 3.01825,0.42558 4.33194,0.64509 1.97894,0.33038 2.64979,0.25758 3.91868,-0.42222 2.24549,-1.20394 2.42916,-1.07627 2.31157,1.606 -0.1344,3.06528 0.21167,3.38894 2.3642,2.20964 1.96886,-1.07738 3.86604,-0.23518 2.43139,1.07963 -0.41662,0.38078 -0.49613,0.88699 -0.24526,1.56792 0.53869,1.46264 4.94007,1.71127 6.29744,0.3539 0.87579,-0.87579 0.91723,-0.87803 0.91723,-0.0694 0,0.46702 -0.32366,0.97212 -0.719,1.12443 -0.5331,0.20383 -0.64173,0.59469 -0.41662,1.50408 0.48493,1.9655 1.07178,2.21525 1.606,0.68429 0.37966,-1.08971 0.81979,-1.44697 2.06741,-1.68104 2.05398,-0.38526 2.21749,-0.15791 1.29018,1.79639 -0.82764,1.74487 -0.81644,1.86135 0.20383,2.00582 1.72471,0.24639 2.29476,-0.0202 2.15589,-1.00683 -0.1568,-1.11434 0.78844,-1.50072 2.57699,-1.05163 1.24425,0.31247 1.91174,2.17941 1.11994,3.1336 -0.4099,0.4939 -0.30463,0.77612 0.49725,1.33834 1.36969,0.95867 1.86695,0.89819 2.39108,-0.29343 0.63613,-1.44473 1.80759,-1.4772 3.19632,-0.0896 1.11994,1.12106 1.39545,1.18714 3.85372,0.93067 1.75943,-0.18479 2.97233,-0.0907 3.61966,0.27998 0.53421,0.30575 1.47608,0.59917 2.09205,0.65069 0.61597,0.0515 1.76167,0.22399 2.54563,0.3819 1.39097,0.28111 1.43017,0.24527 1.56792,-1.43801 0.19823,-2.41123 2.58259,-2.81777 3.71262,-0.63276 0.86907,1.68215 2.26676,1.82214 2.65762,0.26654 0.39982,-1.59592 2.91185,-5.16741 3.6331,-5.16741 0.33822,0 1.33833,-0.4267 2.22308,-0.9486 2.14917,-1.26889 7.34011,-1.74039 7.91128,-0.72012 0.21615,0.38638 1.04603,0.84668 1.84455,1.02139 2.50083,0.54989 4.27146,1.58808 4.06315,2.38436 -0.37518,1.43576 2.69123,3.77309 4.63545,3.53342 3.16384,-0.38862 4.93783,1.39097 3.17168,3.18176 -0.70781,0.71788 0.45693,1.66871 2.82673,2.30596 1.75271,0.47262 2.83122,1.44585 3.29712,2.97569 0.41549,1.36633 1.1681,1.51864 3.58157,0.72348 l 2.1111,-0.69548 -0.29119,-1.7292 c -0.21279,-1.25433 -0.13663,-1.72919 0.27775,-1.72919 0.31358,0 1.02251,-0.42446 1.57576,-0.94411 0.94747,-0.89035 1.08634,-0.90379 2.40339,-0.24751 1.02811,0.51294 1.43465,0.55549 1.53657,0.16127 0.0762,-0.29566 0.36734,-1.25769 0.64956,-2.13685 0.28111,-0.88027 0.5107,-1.89046 0.5107,-2.24436 0,-2.03718 2.87153,-1.87815 3.27247,0.18031 l 0.18927,0.97547 0.0616,-0.96427 c 0.0403,-0.64061 0.51181,-1.12107 1.40441,-1.43241 1.23977,-0.4323 1.34505,-0.63613 1.35401,-2.61955 0.008,-1.98678 0.14335,-2.2466 1.75607,-3.3867 l 1.74599,-1.2353 0.53309,1.68327 c 1.05835,3.33855 5.28838,4.17403 6.25825,1.2353 0.51965,-1.57352 1.05274,-1.9543 1.56792,-1.11994 0.50061,0.81084 1.12106,0.47597 3.31727,-1.79191 2.33956,-2.4146 3.38895,-2.70914 5.5818,-1.56568 1.4492,0.75596 4.31626,0.90379 4.31626,0.22175 0,-0.97323 4.30842,-0.47934 6.03425,0.691 1.56344,1.06171 1.75159,1.09307 2.73378,0.44798 1.23082,-0.80524 2.50083,-0.89036 3.1784,-0.21279 0.97995,0.97995 3.49982,-0.62045 4.09227,-2.59827 0.68541,-2.28692 0.69549,-2.21413 -0.3595,-2.48963 -0.98555,-0.25759 -1.09642,-0.65181 -0.46478,-1.6508 0.35391,-0.55885 0.57901,-0.50845 1.47833,0.33598 1.77847,1.67096 2.12117,1.3081 2.12901,-2.25108 0.008,-3.84029 0.35502,-4.59849 1.92406,-4.20539 1.36745,0.34382 2.7853,2.56915 3.14368,4.93335 0.14448,0.95419 0.5499,2.06294 0.90044,2.46388 0.35054,0.39982 0.77612,1.88374 0.94635,3.29599 0.30574,2.54563 1.6228,4.37562 3.14704,4.37562 0.66525,0 1.57912,1.9207 1.57912,3.31951 0,0.81756 0.42782,1.2017 2.0159,1.80871 1.63511,0.6238 2.01589,0.97771 2.01589,1.87254 0,1.51192 1.79303,3.1784 3.82909,3.5603 2.16485,0.40654 2.94993,-0.4715 2.44148,-2.7293 -0.19151,-0.8478 -0.36734,-3.10896 -0.39086,-5.02295 -0.047,-3.87612 -0.80076,-11.15015 -1.40329,-13.56027 -0.21615,-0.86235 -0.51742,-3.58382 -0.66973,-6.04769 -0.15231,-2.46388 -0.47597,-5.39589 -0.72012,-6.51471 -1.88823,-8.66612 -1.72135,-11.31591 0.64285,-10.23852 2.2354,1.01803 2.49859,0.4771 2.34852,-4.83703 -0.0986,-3.50543 -0.40654,-5.6434 -1.11771,-7.75225 -0.59917,-1.78071 -0.97659,-3.99484 -0.97099,-5.69715 0.008,-2.30596 -0.17919,-3.00817 -1.08186,-4.08107 -1.89831,-2.25669 -3.24112,-6.6995 -3.66222,-12.11667 -0.12991,-1.66983 -0.57677,-3.4371 -1.07626,-4.25578 -0.85676,-1.40441 -1.08411,-3.64094 -0.56781,-5.56948 0.56221,-2.09877 2.84689,2.96001 2.84689,6.30304 0,2.71922 0.0739,2.90849 1.79191,4.58617 0.98555,0.96203 1.79863,1.96102 1.80759,2.2186 0.009,0.25871 0.48941,1.04715 1.06731,1.75384 l 1.0505,1.28569 0.94971,-0.94971 c 1.48953,-1.48953 1.31594,-5.35669 -0.39534,-8.7882 -1.83558,-3.68013 -1.5164,-6.10257 1.04043,-7.8956 0.61037,-0.42781 -0.2923,-0.81643 -2.65538,-1.1401 -3.72494,-0.51069 -6.02082,-5.23573 -2.89842,-5.96593 1.24314,-0.29119 1.54104,-0.84332 0.95643,-1.76839 -0.32926,-0.52078 -0.53533,-0.53646 -1.0841,-0.0818 -0.52637,0.4379 -0.89708,0.44574 -1.66536,0.0347 -0.61708,-0.33039 -1.8031,-0.4211 -3.16496,-0.23967 -2.61506,0.34718 -3.86716,-0.21503 -4.49545,-2.01702 -0.52973,-1.52088 -1.466,-1.69111 -2.26452,-0.41326 -1.42233,2.27797 -2.437,0.60141 -5.41605,-8.95954 -0.88363,-2.83346 -2.24884,-7.16764 -3.03392,-9.63151 -0.7862,-2.46388 -1.71352,-5.68931 -2.06182,-7.16764 -0.3483,-1.47832 -0.79852,-3.39343 -1.00235,-4.25578 -0.20271,-0.86236 -0.69548,-2.31717 -1.0953,-3.23328 -0.3987,-0.91611 -0.72573,-2.25444 -0.72573,-2.97457 0,-0.72124 -0.3987,-2.18837 -0.88587,-3.26239 -0.48718,-1.07403 -0.89036,-2.60499 -0.89595,-3.40239 -0.0112,-1.5332 -0.67645,-4.82023 -1.43129,-7.06236 -0.24863,-0.73916 -0.71789,-2.65427 -1.04267,-4.25578 -0.32478,-1.60152 -0.81532,-3.78877 -1.09082,-4.85944 -0.27551,-1.07178 -0.3763,-2.61619 -0.22287,-3.43262 0.33934,-1.80759 -0.0941,-3.35535 -0.93963,-3.35535 -0.60925,0 -1.17147,-1.61272 -1.75608,-5.04087 -0.41549,-2.43027 0.81644,-4.91095 2.34629,-4.72616 1.77622,0.21391 2.26004,1.42457 1.16586,2.91633 -1.34618,1.83559 -1.50633,2.97793 -0.82204,5.84611 0.33822,1.41449 0.62269,3.13696 0.63165,3.82796 0.009,0.68989 0.40094,2.00022 0.87243,2.91186 2.0551,3.97131 3.17504,6.67038 3.17504,7.65033 0,0.82652 0.18927,1.00459 0.87916,0.82428 0.48381,-0.12656 1.11322,0.0515 1.3988,0.39534 0.71341,0.85899 1.41449,0.78508 2.54676,-0.26991 1.36745,-1.2745 1.90726,-1.1401 1.36073,0.33598 -0.35727,0.96651 -0.19375,2.24437 0.76268,5.9357 0.66972,2.58707 1.31369,5.71171 1.4324,6.94365 0.14112,1.48504 0.55774,2.61731 1.2353,3.35983 1.28234,1.40777 3.37551,5.60979 3.37551,6.77901 0,0.48494 0.32478,1.50969 0.72236,2.27797 0.4883,0.94523 0.64061,1.99574 0.46926,3.24447 -0.23407,1.71016 -0.12207,1.96886 1.51752,3.51326 1.96886,1.85351 2.27125,3.2288 0.81308,3.69246 -0.90715,0.28782 -0.88251,0.35166 0.4771,1.21178 1.19834,0.75932 1.41337,1.14794 1.30921,2.3642 -0.20495,2.38211 0.4603,2.7629 4.66792,2.66882 4.24683,-0.0941 5.58964,-0.62717 5.93682,-2.3586 0.1344,-0.66973 0.45246,-1.87255 0.70557,-2.67218 0.2531,-0.79852 0.32142,-1.6788 0.15119,-1.95319 -0.17023,-0.2755 -0.0314,-0.67532 0.30798,-0.88811 0.3819,-0.23855 0.61709,-1.18826 0.61709,-2.48739 0,-1.90503 0.11312,-2.13238 1.2129,-2.4314 1.63064,-0.4435 2.3362,0.44686 1.95766,2.46499 -0.3763,2.0103 0.87132,2.87602 2.92081,2.0271 0.71789,-0.2979 1.9375,-0.41438 2.71139,-0.25983 1.60151,0.32031 2.62066,-0.3035 2.62066,-1.60375 0,-0.71565 -0.26654,-0.85228 -1.46264,-0.74925 -2.72035,0.23407 -3.89293,-2.71138 -1.44921,-3.64093 1.1793,-0.44798 1.45817,-1.6676 0.70332,-3.0776 -0.23294,-0.43566 -0.24974,-1.04939 -0.0369,-1.39321 0.24302,-0.3931 -0.0336,-1.40441 -0.76492,-2.80322 -2.24885,-4.30058 0.43677,-3.98028 4.69144,0.55885 1.38313,1.47608 2.77298,2.68338 3.0888,2.68338 0.31582,0 0.78956,0.40206 1.05275,0.89484 0.26318,0.49165 1.22857,1.30025 2.14357,1.79639 0.91611,0.49725 2.67218,1.62503 3.90188,2.50643 2.4426,1.75271 2.84354,1.77623 7.39498,0.44462 l 2.46388,-0.72125 0.83212,-2.79649 c 0.45693,-1.53769 1.14682,-3.67118 1.53096,-4.7396 0.7974,-2.21301 0.44686,-2.74162 -1.82775,-2.75394 -1.36297,-0.008 -5.8237,-2.06518 -8.01095,-3.69694 -2.62627,-1.95654 -11.18711,-10.75033 -15.38018,-15.79679 -3.35087,-4.03292 -11.7538,-12.63072 -13.20637,-13.51212 -0.61597,-0.37406 -2.38884,-2.2746 -3.94108,-4.2233 -1.55112,-1.9487 -3.04065,-3.5435 -3.30943,-3.5435 -0.5051,0 -1.66984,-1.3081 -1.69448,-1.90391 -0.0459,-1.06618 2.80546,-0.21615 4.05868,1.21066 0.747,0.85004 1.79863,1.6844 2.33844,1.85351 0.53869,0.16799 1.55,0.78284 2.24661,1.36521 0.6966,0.58237 1.60711,1.05834 2.02373,1.05834 0.41662,0 1.49961,0.50398 2.40564,1.11995 0.90603,0.61597 1.82775,1.11994 2.04838,1.11994 0.21951,0 0.61485,0.47374 0.87915,1.05275 0.26319,0.57901 1.11211,1.53656 1.88599,2.12789 0.77276,0.59133 2.31492,1.9319 3.4259,2.97905 1.44921,1.36521 2.39892,1.9039 3.36095,1.9039 1.11323,0 1.45369,0.27103 2.00918,1.6004 0.63053,1.50968 0.77612,1.5948 2.55347,1.4884 1.03595,-0.0627 2.32388,0.12432 2.86257,0.4155 0.53758,0.29007 1.2241,0.5275 1.52537,0.5275 0.99675,0 3.5435,2.27012 3.5435,3.15824 0,0.48045 0.20831,0.87355 0.46253,0.87355 0.25535,0 0.86796,0.68429 1.36073,1.52088 0.62829,1.06507 1.32938,1.60264 2.33733,1.79191 0.89035,0.16688 2.44819,1.21626 4.08555,2.75282 3.04848,2.86034 3.59054,2.7405 3.53678,-0.77836 -0.0213,-1.46152 0.23967,-2.75618 0.69884,-3.45726 0.61485,-0.93963 0.71229,-2.22309 0.59917,-7.95832 -0.0739,-3.79436 0.0571,-7.19675 0.29567,-7.64137 0.29902,-0.55997 0.23855,-1.06395 -0.20159,-1.66535 -0.34718,-0.47486 -0.63165,-1.79751 -0.63165,-2.93986 0,-1.63511 -0.23743,-2.29924 -1.11994,-3.128 -1.09531,-1.02922 -1.39321,-2.35188 -0.8478,-3.77085 0.29679,-0.77276 2.86369,-1.01242 2.86369,-0.26654 0,0.24303 0.75373,0.75596 1.67432,1.14122 0.92059,0.38414 2.10549,1.10538 2.63411,1.60152 l 0.96091,0.90267 1.26553,-1.1737 c 1.45593,-1.34841 2.40564,-1.26217 5.14054,0.46366 2.82674,1.78407 3.14032,1.606 3.80893,-2.16373 0.31582,-1.77847 -0.59693,-3.45391 -1.88151,-3.45391 -1.58248,0 -1.18826,-3.88732 0.41774,-4.11579 1.43577,-0.20383 1.41561,-2.39555 -0.0213,-2.34404 -0.90939,0.0314 -1.00794,-0.17359 -1.00794,-2.09541 0,-2.62515 -1.38873,-3.98812 -4.06316,-3.98812 -2.03493,0 -3.67341,-0.57005 -4.77208,-1.66199 -1.43352,-1.42457 -4.80679,-4.015 -5.58851,-4.29387 -0.41886,-0.14783 -0.97995,-1.08634 -1.24874,-2.08421 -0.47485,-1.76391 -0.54429,-1.81543 -2.41012,-1.81543 -1.46936,0 -2.16709,-0.26319 -2.97233,-1.11994 -0.6518,-0.69325 -1.54552,-1.11994 -2.3474,-1.11994 -0.71228,0 -1.73591,-0.24527 -2.27348,-0.54542 -0.53869,-0.30014 -2.18837,-0.57229 -3.66669,-0.60365 -2.9029,-0.0638 -7.39163,-1.67767 -7.39163,-2.65874 0,-1.06843 1.28682,-1.6228 3.66333,-1.58024 2.10438,0.0381 8.25735,-0.19263 17.3916,-0.65181 4.91767,-0.24751 10.46475,-0.94747 11.74709,-1.4828 0.72796,-0.30463 2.353,-0.40766 4.03179,-0.25759 3.09216,0.27663 5.12822,-0.27103 5.60084,-1.50856 0.98219,-2.57251 3.819,-4.27147 4.62312,-2.76962 0.67309,1.25769 1.80871,0.27214 2.86146,-2.48292 0.94187,-2.46723 1.77063,-2.79313 3.46846,-1.36521 1.53656,1.29354 1.98006,1.36857 2.86593,0.48382 0.83884,-0.83884 0.8198,-2.04838 -0.0325,-2.04838 -0.37294,0 -0.67197,-0.3987 -0.67197,-0.89595 0,-0.59693 0.29903,-0.89596 0.89595,-0.89596 0.63389,0 0.89596,0.29903 0.89596,1.02251 0,1.24874 3.62862,2.58595 4.88071,1.79751 2.20293,-1.38649 0.39198,-3.88956 -2.49971,-3.45614 -1.92742,0.28894 -1.93302,0.28558 -1.93302,-1.10539 0,-0.87579 -0.37518,-1.73591 -1.00795,-2.31156 -0.55437,-0.50398 -1.41785,-1.31033 -1.91958,-1.79191 -0.50174,-0.48158 -1.45481,-0.87468 -2.11782,-0.87468 -2.01589,0 -2.74274,-1.66311 -2.44595,-5.59299 0.27662,-3.65102 0.0616,-4.08667 -2.13685,-4.3353 -2.56467,-0.29007 -3.23552,-4.50105 -0.915,-5.74195 1.03147,-0.55325 1.79527,-2.08085 1.20506,-2.41348 -0.16127,-0.0907 -1.03819,-0.30014 -1.94758,-0.46365 -1.98454,-0.35839 -2.63859,-1.67768 -1.47049,-2.96785 0.53198,-0.58797 0.70333,-1.35401 0.5667,-2.53107 -0.10864,-0.92844 0.0683,-2.19733 0.3931,-2.82002 0.3259,-0.62269 0.59245,-1.59256 0.59469,-2.15477 10e-4,-0.56221 0.40989,-2.23093 0.90715,-3.70813 0.66749,-1.9823 0.78508,-2.90962 0.44798,-3.54014 -0.73245,-1.36969 -0.5443,-3.48751 0.36846,-4.13483 2.36308,-1.67768 1.22074,-5.88867 -1.75831,-6.48448 -1.49849,-0.29902 -1.70344,-0.83659 -0.44462,-1.16586 1.35177,-0.3539 2.12117,-3.50094 1.46041,-5.97153 -0.29231,-1.09083 -0.53086,-3.03953 -0.53086,-4.3297 -10e-4,-1.85463 -0.23519,-2.61731 -1.11994,-3.64654 -1.52536,-1.77399 -1.41897,-2.6565 0.71452,-5.93122 l 1.83447,-2.81553 -2.72482,-2.52212 c -2.03382,-1.88374 -2.84578,-2.99472 -3.20416,-4.38345 -1.08522,-4.21211 -1.91286,-5.62548 -3.71821,-6.34896 -1.32937,-0.53309 -1.65416,-0.86684 -1.42457,-1.46153 0.93739,-2.41907 0.79628,-5.04758 -0.41774,-7.75112 l -1.22409,-2.7293 0.93851,-0.87356 c 1.59256,-1.48392 1.00571,-5.31973 -0.8142,-5.31973 -1.54552,0 -2.05846,-1.18938 -1.46713,-3.40127 0.71789,-2.68226 0.70669,-2.7293 -0.69772,-3.08208 -1.59928,-0.40094 -2.35412,-1.05275 -2.35412,-2.03158 0,-1.20394 -1.77623,-2.12341 -3.66334,-1.89606 -2.63634,0.31694 -4.60296,-4.13483 -2.61954,-5.9301 1.04266,-0.94411 2.83793,-0.11983 3.36767,1.54552 0.34046,1.07403 1.36745,1.19162 1.91174,0.21951 0.53085,-0.94859 1.67207,0.32366 2.22533,2.48067 0.46029,1.79303 2.16373,2.96225 3.13808,2.15253 0.7078,-0.58685 0.35054,-2.01141 -0.82764,-3.30159 -1.51416,-1.65751 -0.7526,-4.6836 1.46712,-5.83154 1.40889,-0.72908 1.31034,-1.55784 -0.31358,-2.62179 -1.03707,-0.6798 -1.06955,-0.65965 -1.34953,0.83772 -0.32702,1.73815 -2.80658,2.60051 -4.64665,1.61496 -1.30361,-0.69773 -1.1793,-1.15242 0.86236,-3.15376 2.07078,-2.03046 2.0719,-2.0327 0.89596,-3.80781 -1.15691,-1.74711 -1.16027,-1.73367 0.67196,-3.67565 2.54675,-2.70019 1.76727,-4.55033 -1.30361,-3.09329 -2.01702,0.95756 -1.95654,0.98107 -4.46522,-1.78071 l -2.185,-2.40451 1.28905,-0.51742 c 1.43913,-0.57789 2.82002,-0.61485 6.44079,-0.17247 4.34314,0.53085 10.89705,-5.16742 9.67407,-8.40965 -0.35166,-0.93067 -0.32142,-1.48281 0.12096,-2.19061 0.85675,-1.37305 0.0605,-1.70791 -4.08332,-1.71575 -3.98811,-0.008 -5.4362,-0.86348 -5.17973,-3.05857 0.12879,-1.10986 0,-1.21514 -1.65192,-1.34617 -2.72594,-0.21615 -2.8021,-0.69436 -0.51181,-3.24112 2.77409,-3.08544 2.7629,-4.00043 -0.0482,-4.03403 -3.28032,-0.0381 -5.1719,-0.85452 -5.65011,-2.43812 -1.18938,-3.9366 -1.53657,-4.29498 -6.74206,-6.94364 -3.15488,-1.606 -5.32645,-4.83704 -4.94791,-7.36251 0.41102,-2.73938 -0.55549,-3.43599 -3.82685,-2.75618 m -11.64741,6.2952 c 0,0.61933 0.36735,1.30025 0.8366,1.55224 1.44697,0.77388 1.96886,-0.68316 0.69885,-1.95206 -1.00795,-1.00795 -1.53545,-0.87132 -1.53545,0.39982 M 213.66628,167.88 c -0.41102,0.23966 -3.33407,0.50621 -6.49567,0.59245 -5.00503,0.13663 -6.10705,0.31022 -8.53397,1.34281 -1.53208,0.65181 -3.21648,1.1849 -3.74173,1.1849 -0.52525,0 -1.8927,0.48381 -3.03729,1.07402 -1.14458,0.59021 -3.19071,1.42793 -4.54584,1.86023 -5.37237,1.71351 -12.64864,6.03201 -13.22541,7.84968 -0.51854,1.634 -1.74599,2.24997 -3.38783,1.70119 -2.21637,-0.7414 -2.49635,-1.17034 -1.15914,-1.7807 2.92865,-1.33386 1.21066,-4.22219 -2.00134,-3.36543 -1.90838,0.50957 -2.27797,1.61943 -1.07179,3.21535 0.46926,0.61933 0.58125,1.47833 0.39198,2.98913 -0.20047,1.59032 -0.075,2.41348 0.50286,3.29487 0.52525,0.80188 0.68316,1.63288 0.49837,2.62067 -0.31134,1.66088 0.88924,3.1504 2.28357,2.83234 0.45021,-0.10304 1.47496,0.29454 2.27908,0.88251 1.23418,0.9038 1.77287,1.02363 3.47182,0.76828 1.83559,-0.2755 2.0103,-0.22063 2.0103,0.63389 0,0.58125 0.49726,1.19274 1.31258,1.61384 0.72124,0.37406 1.44136,1.08634 1.59927,1.5836 0.35279,1.1121 4.09452,4.03291 5.16742,4.03291 0.97099,0 1.18826,-0.87579 1.55672,-6.27168 0.41998,-6.14961 2.26901,-11.16359 4.38458,-11.89155 1.07739,-0.37183 2.06854,0.51517 1.78631,1.59815 -0.37406,1.42793 0.19599,2.4426 0.99787,1.77735 0.90379,-0.75036 0.84332,-3.5379 -0.0997,-4.57944 -0.66076,-0.73021 -0.67644,-0.9038 -0.11199,-1.25994 1.00571,-0.63613 3.11792,-0.51741 3.11792,0.17471 0,1.34281 1.74263,2.30037 3.19072,1.75383 3.20976,-1.21178 2.88273,0.16351 -0.39086,1.6452 -0.55437,0.25087 -1.00795,0.65853 -1.00795,0.90603 0,0.69101 -3.4427,2.29029 -5.28725,2.45604 -1.39993,0.12543 -1.68439,0.33822 -1.91286,1.43129 -0.14784,0.70668 -0.72349,2.17157 -1.28122,3.25455 -0.6686,1.30138 -0.92619,2.3978 -0.75932,3.22992 0.38078,1.9039 3.95228,7.09932 4.88743,7.11052 0.44014,0.004 1.49849,0.7078 2.35188,1.56232 0.93516,0.93403 1.55336,1.29577 1.55336,0.90603 0,-0.35614 0.50398,-0.97659 1.11995,-1.38089 1.36745,-0.89595 1.42232,-2.0495 0.17807,-3.73389 -1.15018,-1.55336 -0.81868,-3.04624 0.76156,-3.44382 1.17482,-0.29455 1.42793,-0.0773 3.94108,3.3699 3.68349,5.04983 12.44257,3.08545 13.47404,-3.02272 0.6966,-4.12475 4.60744,-2.80658 7.34458,2.47507 1.08187,2.08646 -1.52984,4.4361 -5.37124,4.8348 -1.07851,0.11087 -3.47295,0.43117 -5.32085,0.70892 -1.84791,0.27887 -4.26699,0.58013 -5.37573,0.67085 -6.48559,0.53085 -7.46106,1.01467 -6.13057,3.04624 0.6854,1.04603 2.69346,1.77287 6.40159,2.31492 2.0271,0.29679 8.70868,-1.08186 12.49633,-2.57922 1.84119,-0.72797 2.8525,-0.83548 5.68035,-0.60701 3.91196,0.31694 4.53353,-0.0638 2.66547,-1.63512 -1.83111,-1.54104 -2.5042,-2.91409 -1.82663,-3.73053 1.01355,-1.22074 3.11232,0.41102 3.11232,2.4202 0,0.99339 0.29231,1.34281 1.48393,1.77399 1.84006,0.66524 2.988,2.88049 3.01488,5.8181 0.0112,1.16138 0.18031,2.94097 0.3763,3.9534 0.34383,1.77063 0.30015,1.8703 -1.14234,2.64755 -1.39321,0.75036 -1.44921,0.86459 -0.7862,1.59703 1.53544,1.69784 1.34393,4.10348 -0.48269,6.03874 -5.13382,5.44068 -4.34202,9.8723 0.87579,4.89863 2.91857,-2.78194 2.97569,-2.79762 5.84386,-1.56792 3.79773,1.6284 4.45962,0.31582 0.92956,-1.84567 -2.47844,-1.51752 -3.48191,-5.63555 -1.84231,-7.56185 0.31582,-0.36959 0.67869,-1.91623 0.8086,-3.43711 0.27103,-3.15824 1.50744,-8.62356 2.44932,-10.81753 1.21401,-2.82898 -0.98219,-4.55593 -5.79907,-4.55929 -3.39903,-0.001 -4.83367,-0.94299 -4.83367,-3.16944 0,-1.70455 1.1289,-1.83894 4.34985,-0.51741 3.29488,1.35177 5.20326,1.1401 7.23708,-0.80412 0.76828,-0.73356 1.70007,-1.33385 2.07189,-1.33385 1.634,0 2.46836,-1.6676 2.46836,-4.93447 0,-1.72807 0.33486,-4.34762 0.74476,-5.82035 0.87355,-3.14256 0.42558,-4.03851 -2.47844,-4.95687 -1.87366,-0.59245 -2.7461,-1.5164 -2.7461,-2.90849 0,-1.16474 -3.4203,-4.46521 -5.55043,-5.35445 -0.80524,-0.3371 -1.73592,-0.93963 -2.06854,-1.33945 -1.0785,-1.30025 -3.03728,-2.01254 -5.53028,-2.01254 -2.7013,0 -10.43003,-1.43352 -11.86244,-2.19956 -1.12442,-0.60141 -4.9591,-0.61709 -5.97489,-0.0246 m 62.66754,7.34234 c -1.78519,0.73357 -3.11009,0.99451 -4.26699,0.83996 -3.13024,-0.41998 -7.29307,2.37988 -6.09025,4.09675 1.35961,1.94199 0.85788,2.63635 -1.72471,2.38548 -3.07872,-0.2979 -3.47182,-0.10975 -3.47182,1.66872 0,1.55224 1.66087,3.42366 3.58045,4.03291 0.91164,0.28895 1.64632,2.06742 1.17146,2.8357 -1.438,2.32612 -0.99899,10.1926 0.59693,10.69322 3.58158,1.12442 4.79784,2.50643 2.94657,3.34975 -2.05061,0.93403 -0.68988,2.62178 2.99137,3.71149 1.30698,0.3875 3.18288,1.27561 4.16843,1.97334 5.12598,3.62973 15.00724,4.09563 15.00724,0.7078 0,-1.10426 -0.0784,-1.1457 -4.24235,-2.23093 -4.67464,-1.21737 -4.84487,-2.06965 -0.57229,-2.87489 4.83928,-0.91387 5.45189,-1.90166 4.73176,-7.63689 -0.30686,-2.44036 4.25467,-1.66312 7.1598,1.22186 1.08074,1.07178 1.88262,1.466 2.98241,1.466 2.45155,0 1.5612,-1.43129 -1.91958,-3.08544 -4.01724,-1.91062 -6.29296,-3.32847 -7.9628,-4.96023 -1.04379,-1.02139 -1.80759,-1.36185 -3.05073,-1.36185 -0.95419,0 -1.54552,-0.18367 -1.39096,-0.43342 0.14671,-0.23855 0.81419,-0.32478 1.4828,-0.19375 0.66749,0.13215 1.71575,0.0526 2.32836,-0.17583 1.08635,-0.40542 4.734,0.56109 8.18903,2.16933 1.11882,0.51965 3.91196,4.07435 3.91196,4.97591 0,0.53197 3.20975,1.78855 3.89628,1.52536 0.99675,-0.38302 0.64957,-1.96774 -1.0953,-5.00167 -2.30037,-4.00043 -4.92439,-5.45972 -10.52971,-5.8573 -3.92764,-0.27886 -3.93884,-0.28334 -3.00929,-1.14906 1.39097,-1.29577 12.51873,-2.0103 15.91551,-1.02251 4.8684,1.41449 6.7219,0.8142 6.52255,-2.11221 -0.0593,-0.88476 -5.32533,-3.4763 -7.0646,-3.4763 -0.58461,0 -1.41337,-0.18927 -1.84118,-0.41998 -4.15835,-2.24437 -8.03448,-3.35871 -11.77285,-3.38447 -2.96449,-0.0202 -3.79996,-0.22847 -6.80477,-1.69336 -4.18747,-2.04165 -6.87197,-2.18724 -10.77273,-0.58349 m 69.68062,0.86012 c 2.17717,0.57453 4.33418,2.07862 3.00145,2.09205 -1.86919,0.0202 -1.9599,0.72909 -0.47262,3.71934 1.70343,3.42702 1.75047,5.59299 0.13551,6.39263 -0.56333,0.27999 -1.48392,0.93963 -2.04501,1.46601 -1.59704,1.50072 -2.52995,1.25881 -2.52995,-0.65629 0,-1.11994 -0.41326,-2.13685 -1.34394,-3.31279 -0.73916,-0.93291 -1.34393,-2.17381 -1.34393,-2.75618 0,-0.58237 -0.52973,-2.05398 -1.17706,-3.26912 l -1.17594,-2.21076 1.2017,-1.03371 c 1.34617,-1.15802 2.62851,-1.25434 5.74979,-0.43118 m -125.13349,3.45279 c 5.0991,1.38425 9.95854,4.1449 9.26641,5.26597 -0.3763,0.60813 -2.47843,0.0146 -6.02529,-1.70344 -1.52761,-0.74028 -3.128,-1.34729 -3.5547,-1.34841 -0.42782,-0.002 -1.30026,-0.2755 -1.93862,-0.60925 -0.63949,-0.33374 -1.94759,-0.75372 -2.9085,-0.93403 -2.28916,-0.42894 -2.78642,-0.77164 -1.72359,-1.18826 1.47833,-0.57901 3.36767,-0.43678 6.88429,0.51742 m 139.15854,5.80018 c -0.13888,0.36958 -0.0773,1.27674 0.13551,2.0159 l 0.3875,1.34393 0.32254,-1.19946 c 0.36622,-1.36297 -0.40542,-3.33519 -0.84555,-2.16037 m -146.40905,3.45727 c -0.67757,0.10191 -1.78631,0.10191 -2.46388,0 -0.67756,-0.10304 -0.12319,-0.18704 1.23194,-0.18704 1.35513,0 1.9095,0.084 1.23194,0.18704 m 1.18714,5.77106 c 0.53645,0.20607 0.59357,0.46814 0.24527,1.11995 -0.5443,1.01578 -1.45369,1.09754 -2.19957,0.19935 -0.97547,-1.17482 0.22287,-1.98342 1.9543,-1.3193 m -97.47873,4.0374 c 0.31806,0.56669 0.59805,0.62045 1.29801,0.24526 0.98667,-0.52749 3.06305,0.51966 2.57923,1.3025 -0.34942,0.56557 -2.15365,0.52973 -2.73714,-0.0538 -1.24762,-1.24762 -5.62435,0.70781 -6.71294,3.00145 -0.39422,0.82988 -1.19274,1.96102 -1.77511,2.51315 -0.96427,0.91388 -1.06059,1.37865 -1.06731,5.14838 -0.004,2.27908 -0.16911,4.14379 -0.36622,4.14379 -1.43464,0 -1.91062,-3.36543 -0.76156,-5.37573 0.35166,-0.61597 0.64733,-1.88038 0.65629,-2.80881 0.0235,-2.54676 2.58595,-7.48346 4.2625,-8.21367 1.89831,-0.82764 4.13371,-0.77948 4.62425,0.0974 m 160.54721,3.8694 c 2.23876,1.78519 1.06282,4.74408 -1.36745,3.44159 -0.887,-0.47598 -1.95766,-0.86572 -2.37764,-0.86572 -1.86919,0 -1.28122,-1.44249 0.98891,-2.42692 1.91958,-0.83323 1.90054,-0.83211 2.75618,-0.14895 m 40.26643,0.67197 c 0.0179,0.67756 0.18927,1.63511 0.3819,2.12789 0.50846,1.30025 1.08411,-0.57565 0.67645,-2.20181 -0.38526,-1.5332 -1.09755,-1.48392 -1.05835,0.0739 M 136.10571,228.1788 c -0.45021,0.45021 -0.38302,2.75282 0.0885,3.04512 0.55885,0.34494 1.05163,-1.87478 0.59581,-2.68786 -0.20495,-0.36734 -0.51293,-0.5275 -0.68429,-0.35726 m 93.33495,12.45824 c -2.02598,2.44148 -1.58584,9.47248 0.76828,12.2701 0.96763,1.14906 2.04053,2.54227 2.38548,3.09664 0.34494,0.55438 1.03146,1.01467 1.52648,1.02251 1.2353,0.019 2.53331,1.94198 3.14368,4.65896 l 0.50957,2.27013 2.20741,0.26543 c 1.21402,0.14559 2.61059,0.11759 3.10336,-0.0627 7.39723,-2.70466 8.71204,-2.64867 11.06168,0.46926 1.6676,2.21188 3.9142,3.05072 3.98028,1.48616 0.019,-0.44798 0.0974,-1.41897 0.17359,-2.15813 0.0773,-0.73916 0.29007,-2.78306 0.47486,-4.54137 l 0.33374,-3.19632 1.79975,-0.24191 c 1.13898,-0.15231 2.19285,-0.66524 2.86929,-1.39432 1.15354,-1.24426 3.09441,-1.52089 4.68921,-0.66749 1.30137,0.6966 2.82673,0.17359 4.86727,-1.66984 3.19744,-2.88833 1.86806,-4.33082 -3.02497,-3.28255 -5.05766,1.08523 -6.63006,0.82876 -8.99986,-1.46488 -2.23541,-2.1615 -3.60398,-3.02833 -4.78552,-3.02833 -0.40318,0 -1.37417,-0.48942 -2.15813,-1.08859 -1.33609,-1.01802 -5.32757,-2.94321 -6.10481,-2.94321 -0.19263,0 -1.09866,0.59581 -2.01478,1.32378 -2.6677,2.12005 -10.44571,1.99462 -13.91417,-0.22399 -1.9767,-1.26442 -2.46276,-1.41561 -2.89169,-0.89932 m 6.10369,24.28933 c -0.45134,0.45022 -0.35839,1.49288 0.13327,1.49288 0.23743,0 0.64845,-0.40318 0.91163,-0.89595 0.47822,-0.89483 -0.30238,-1.34057 -1.0449,-0.59693 m 7.54057,7.76457 c -0.15231,0.24638 -1.17818,0.44797 -2.2802,0.44797 -1.10314,0 -2.65315,0.27103 -3.44607,0.60141 -0.79292,0.33039 -2.50083,0.85452 -3.79436,1.16474 -1.29466,0.31023 -2.46612,0.74477 -2.60275,0.96651 -0.54317,0.87916 -3.06417,0.39758 -4.34426,-0.82875 -0.7078,-0.67757 -1.72583,-1.26778 -2.26453,-1.31034 -0.53869,-0.0437 -1.79862,-0.21727 -2.80209,-0.38414 -2.84466,-0.47709 -11.39206,4.27259 -11.39206,6.32992 0,0.3651 -0.40318,1.45481 -0.89708,2.42132 -1.29465,2.53779 0.42334,3.02608 12.09651,3.44158 2.34068,0.0829 4.96134,0.17807 5.8237,0.21167 3.31951,0.12768 5.98498,-0.39646 6.73758,-1.32489 1.09754,-1.35625 4.77096,-1.86918 9.61359,-1.34281 2.21749,0.24079 5.44292,0.47821 7.16764,0.52637 1.72471,0.0482 6.34447,0.26207 10.2654,0.47598 l 7.12955,0.38638 3.81789,1.9487 c 2.6677,1.36073 4.37002,1.94758 5.65459,1.94758 1.01019,0 2.93873,0.39646 4.28379,0.8814 l 2.44707,0.88139 1.00795,-1.13002 c 1.78743,-2.0047 0.74252,-4.66457 -1.83335,-4.66457 -0.75036,0 -4.6892,-2.07525 -11.046,-5.81922 -1.10874,-0.65293 -3.49422,-1.86695 -5.30181,-2.6957 l -3.28591,-1.50857 -3.71037,0.77164 c -4.25915,0.88476 -5.88082,0.66749 -11.35063,-1.52312 -3.41582,-1.36745 -5.21669,-1.64407 -5.69379,-0.87243 m -160.263982,0.48338 c -1.048267,0.61037 -0.998989,1.75607 0.07504,1.75607 1.452566,0 2.276845,-0.50397 2.276845,-1.39209 0,-0.93515 -1.082985,-1.10314 -2.351881,-0.36398 m 6.068966,13.23885 c 0.4435,0.44238 -0.538687,1.95654 -1.26889,1.95654 -0.798519,0 -0.879155,-1.62728 -0.09632,-1.9431 0.813079,-0.32814 1.04939,-0.33038 1.36521,-0.0134 m 130.788082,1.81767 c 0.43118,0.11199 1.13674,0.11199 1.56792,0 0.43118,-0.11312 0.0784,-0.20495 -0.78396,-0.20495 -0.86235,0 -1.21514,0.0918 -0.78396,0.20495 m 153.80515,2.76738 c -0.13215,0.21279 0.15904,0.74812 0.64509,1.18938 0.86124,0.77836 0.88588,0.76716 0.88588,-0.38862 0,-1.15131 -0.99339,-1.67096 -1.53097,-0.80076 M 85.928799,294.5653 c -1.054986,0.18815 -1.387609,-0.14224 -1.044907,-1.03483 0.237428,-0.62157 0.360622,-0.61037 1.072906,0.0929 0.773881,0.7638 0.772761,0.79964 -0.028,0.94188 m 130.706332,13.48411 c 0.3315,0.53645 -0.51182,1.06731 -1.10875,0.69885 -0.50061,-0.31023 -0.17135,-1.11547 0.45582,-1.11547 0.21727,0 0.51069,0.18815 0.65293,0.41662 M 72.082943,330.6655 c 0.39758,0.87356 0.360622,1.13339 -0.19263,1.34617 -0.909394,0.34831 -1.500724,-0.0594 -1.500724,-1.03594 0,-1.65528 0.99675,-1.83783 1.693354,-0.31023 m 210.661307,2.97457 c 1.11994,2.09206 -3.91868,13.97801 -6.7331,15.88192 -0.61597,0.41661 -1.76615,1.59367 -2.55571,2.61618 -0.78956,1.02363 -1.94086,2.39668 -2.55795,3.05297 -0.61597,0.65516 -1.25209,1.71239 -1.41113,2.34852 -0.49165,1.95766 -1.22185,0.76268 -0.94747,-1.55 0.27775,-2.34964 -0.67084,-6.8227 -2.43699,-11.48726 l -1.05163,-2.77634 0.91275,-1.22298 c 0.63389,-0.85003 1.99686,-1.5948 4.47194,-2.44371 1.95878,-0.67085 5.17301,-2.12565 7.14411,-3.23328 4.16619,-2.33844 4.50665,-2.41684 5.16518,-1.18602 m 38.82059,5.9581 c 0.10191,0.10191 -0.54205,0.27103 -1.43241,0.37406 -1.61608,0.18927 -2.2914,-0.16463 -1.80759,-0.94859 0.23071,-0.37294 2.73603,0.0706 3.24,0.57453 m -260.737325,2.45155 c -0.99787,1.10315 -0.934033,2.18277 0.163511,2.76962 1.155782,0.61821 1.78295,0.22623 1.78295,-1.11434 0,-2.37988 -0.729083,-3.00033 -1.946461,-1.65528 m 201.654725,0.16688 c 0.29566,0.29566 0.53757,0.84667 0.53757,1.22521 0,0.37742 0.53533,1.71016 1.1905,2.96001 1.49849,2.86258 1.24874,4.68697 -0.63949,4.68025 -2.96449,-0.0123 -8.16662,-2.59155 -8.16662,-4.05084 0,-1.9431 5.92114,-5.97153 7.07804,-4.81463 m 44.41246,4.14715 c -0.6574,0.65964 -1.95318,-0.86012 -1.57464,-1.84679 0.28671,-0.74588 0.38638,-0.72012 1.15691,0.30126 0.53533,0.70781 0.68764,1.27338 0.41773,1.54553 m 7.88216,8.13414 c 1.56904,1.02811 1.22746,4.20427 -0.45245,4.20427 -0.92844,0 -1.28682,-0.84108 -0.67309,-1.58024 0.43566,-0.52525 0.31807,-0.72684 -0.63389,-1.08859 -1.35849,-0.51741 -1.49064,-1.13002 -0.38414,-1.77511 1.00347,-0.58461 0.86124,-0.60028 2.14357,0.23967 m 6.70398,3.65102 c 0.24639,0.18143 0.75261,0.92507 1.12555,1.65303 0.49389,0.96315 1.18154,1.45145 2.52435,1.79191 1.20618,0.30575 2.60163,1.20618 4.02619,2.59603 1.19834,1.17034 2.40004,2.12789 2.66995,2.12789 0.2699,0 0.83324,0.37854 1.25097,0.83996 0.41886,0.46254 1.45929,0.95419 2.31381,1.09306 2.07301,0.33599 4.11691,1.85239 4.84487,3.59166 0.3259,0.7806 1.17818,1.72135 1.89383,2.08982 2.6117,1.34729 2.39779,2.16261 -0.92956,3.54126 -2.56243,1.06282 -4.26474,0.79628 -4.26474,-0.66637 0,-2.26117 -1.34953,-3.43487 -3.68797,-3.21088 -2.37652,0.22847 -4.67465,-0.85563 -6.80478,-3.20751 -0.46477,-0.51406 -1.07962,-0.93516 -1.36521,-0.93516 -0.2867,0 -0.96203,-0.7862 -1.50184,-1.74711 -0.53982,-0.95979 -2.18949,-2.86481 -3.6667,-4.23114 -3.14592,-2.91298 -3.0776,-2.67331 -1.24089,-4.35098 1.48504,-1.35513 2.03493,-1.54664 2.81217,-0.97547 m -29.12972,6.36911 c 2.71138,2.00246 3.33519,2.91074 2.54339,3.70254 -0.73804,0.73804 -2.13237,-0.0347 -6.975,-3.86381 -0.85452,-0.67532 -1.21178,-1.28233 -1.03147,-1.75159 0.40318,-1.05163 2.39444,-0.35502 5.46308,1.91286 m 73.74714,11.8266 c -0.39646,0.47822 -0.35838,0.67981 0.16911,0.88252 0.46926,0.18031 0.68317,-0.0134 0.68317,-0.62045 0,-1.04379 -0.1624,-1.09418 -0.85228,-0.26207 m -7.4353,1.17258 c 1.72247,1.14123 2.44371,1.14123 2.14581,0 -0.18031,-0.68988 -0.60925,-0.89483 -1.86247,-0.89259 l -1.62728,0.002 1.34394,0.89035 m 4.39353,4.47754 c -0.56445,1.49624 0.1064,2.46387 1.37305,1.97782 0.96427,-0.36958 0.92732,-1.65752 -0.0739,-2.56355 -0.75148,-0.67981 -0.83548,-0.64173 -1.29914,0.58573 m -80.08153,11.07735 c 2.11109,1.00683 1.99238,1.75832 -0.24415,1.54553 l -1.79191,-0.17136 0.0885,-4.32074 c 0.0829,-4.01387 0.10079,-4.08891 0.24415,-1.0561 0.15343,3.22655 0.17359,3.27359 1.70343,4.00267 m 27.02983,16.20894 c 0.48605,0.30911 0.4155,0.45694 -0.33263,0.69437 -1.20058,0.38078 -2.21524,-0.14784 -1.34281,-0.70109 0.7582,-0.47933 0.90716,-0.47933 1.67544,0.007 m 6.10033,4.97031 c 0.16351,0.26431 -0.33039,0.44462 -1.20506,0.44126 -1.12219,-0.006 -1.3193,-0.11312 -0.81084,-0.44126 0.87131,-0.56333 1.66759,-0.56333 2.0159,0 m 2.23988,18.81504 c 0.15232,0.24639 0.65629,0.44798 1.11995,0.44798 0.46365,0 0.96763,-0.20159 1.11994,-0.44798 0.16239,-0.26206 -0.30239,-0.44797 -1.11994,-0.44797 -0.81756,0 -1.28234,0.18591 -1.11995,0.44797 m -7.8396,51.84441 c 0,0.70669 0.18255,1.47721 0.40542,1.71128 0.59917,0.6294 1.77511,8.26742 1.522,9.88125 -0.3203,2.0383 1.25658,4.87624 3.05633,5.50452 1.70455,0.59357 1.86022,0.4827 1.9823,-1.41 0.0515,-0.80076 0.24638,-2.41236 0.43342,-3.5827 0.2811,-1.76727 0.22062,-2.12789 -0.35503,-2.12789 -0.90155,0 -3.01264,-2.5154 -3.01264,-3.58942 0,-0.45694 -0.23967,-1.39993 -0.53422,-2.09318 -0.29342,-0.69324 -0.747,-2.16821 -1.00907,-3.27695 -0.59245,-2.50979 -2.48851,-3.28479 -2.48851,-1.01691 m -5.42052,16.13614 c 0.0246,0.30799 -0.1568,0.55997 -0.40318,0.55997 -0.24639,0 -0.42782,-0.75596 -0.40318,-1.67991 0.0426,-1.62392 0.65516,-0.77388 0.80636,1.11994 m 11.6922,14.86837 c 0,0.50733 0.20159,0.92283 0.44798,0.92283 0.24639,0 0.44798,-0.29006 0.44798,-0.64509 0,-0.35502 -0.20159,-0.77052 -0.44798,-0.92283 -0.24639,-0.15231 -0.44798,0.13775 -0.44798,0.64509 m -31.63839,0.36286 c 0.67644,2.3306 0.3707,4.59177 -0.62157,4.59177 -0.56333,0 -1.04603,-2.9029 -0.70668,-4.25243 0.3259,-1.30137 0.99787,-1.47272 1.32825,-0.33934 m -209.179624,0.0661 c 1.322653,0.51853 0.06048,1.06954 -1.608238,0.7022 -1.025868,-0.22511 -1.229698,-0.40878 -0.772761,-0.69772 0.730203,-0.46254 1.208419,-0.46366 2.380999,-0.004 m -6.751017,4.74967 c -0.3875,1.00795 0.152312,2.0159 1.077385,2.0159 1.044907,0 1.896064,-0.84443 1.896064,-1.8815 0,-1.03035 -2.584829,-1.14682 -2.973449,-0.1344 m 30.640529,7.28412 0.968752,0.96875 -1.448092,0.27214 c -3.26911,0.61373 -5.4474,0.10752 -5.60756,-1.30137 l -0.14783,-1.28906 2.63299,0.19039 c 1.92854,0.14 2.89281,0.45022 3.60174,1.15915 m 46.852822,1.63399 c 0.64396,0.98331 0.64396,1.10315 -0.006,1.35177 -0.90716,0.34831 -1.94198,-0.49837 -1.94198,-1.5892 0,-1.18154 1.1065,-1.04714 1.94758,0.23743 m -64.664402,0.5219 c 0,0.41773 0.304624,0.6462 0.747002,0.55997 1.123303,-0.21727 1.277855,-1.26442 0.18591,-1.26442 -0.549892,0 -0.932912,0.28895 -0.932912,0.70445 m 49.224862,1.19945 c -0.21615,2.27573 0.66413,2.99921 2.05734,1.69112 0.85675,-0.80524 1.00347,-1.19386 0.62268,-1.65192 -0.62828,-0.75708 -2.60946,-0.78508 -2.68002,-0.0392 m 126.12912,0.831 c -0.32591,0.5275 -1.98678,0.51966 -1.98678,-0.0101 0,-0.22511 0.25199,-0.49837 0.55997,-0.60589 0.78284,-0.27326 1.72471,0.13328 1.42681,0.61597 m -26.61881,22.9118 c 0.003,0.30798 0.18031,0.83324 0.39198,1.1681 0.49277,0.77612 1.1401,-0.12431 0.775,-1.07739 -0.30574,-0.79627 -1.17594,-0.86347 -1.16698,-0.0907"
     id="path1" />
</svg>
